<svg width="142" height="65" viewBox="0 0 142 65" fill="none" xmlns="http://www.w3.org/2000/svg">
<path d="M117.482 65.0001C112.633 65.0001 107.892 63.5722 103.861 60.897C99.8286 58.2217 96.686 54.4193 94.8303 49.9706C92.9746 45.5219 92.4891 40.6266 93.4351 35.9038C94.3811 31.1811 96.7162 26.843 100.145 23.438C103.574 20.0331 107.943 17.7144 112.699 16.775C117.455 15.8355 122.385 16.3177 126.865 18.1604C131.345 20.0031 135.174 23.1237 137.868 27.1274C140.562 31.1312 142 35.8383 142 40.6536V40.9072C141.933 47.3202 139.32 53.4479 134.729 57.959C130.138 62.4702 123.941 65.0004 117.482 65.0001ZM117.482 21.6329C113.643 21.6329 109.89 22.7633 106.698 24.8812C103.506 26.9991 101.019 30.0093 99.5494 33.5313C98.0803 37.0532 97.6959 40.9286 98.4449 44.6674C99.1938 48.4063 101.042 51.8406 103.757 54.5362C106.472 57.2317 109.93 59.0674 113.695 59.8111C117.46 60.5548 121.363 60.1732 124.91 58.7143C128.457 57.2555 131.488 54.7851 133.621 51.6154C135.754 48.4458 136.892 44.7193 136.892 40.9072C136.892 35.7954 134.847 30.8929 131.207 27.2782C127.567 23.6636 122.63 21.6329 117.482 21.6329Z" fill="#FEE856"/>
<path d="M83.259 51.5588L81.7267 51.0516L52.1007 30.7629C51.7231 30.5245 51.4248 30.1808 51.243 29.7748C51.0613 29.3687 51.0043 28.9185 51.0792 28.4804C51.0691 28.0207 51.2146 27.571 51.4924 27.2031C51.7702 26.8353 52.1643 26.5706 52.6115 26.4515L84.0252 13.5175C84.429 13.306 84.8865 13.2173 85.3406 13.2624C85.7948 13.3075 86.2256 13.4844 86.5792 13.7711L119.014 38.8784C119.411 39.1602 119.717 39.5488 119.898 39.9982C120.079 40.4476 120.127 40.939 120.036 41.4145C119.986 41.8684 119.782 42.2918 119.457 42.6147C119.132 42.9375 118.705 43.1404 118.248 43.1897L83.7698 51.3052L83.259 51.5588ZM58.741 29.2412L83.7698 46.2331L111.863 39.6392L84.536 18.5897L58.741 29.2412Z" fill="#FEE856"/>
<path d="M76.8741 8.95232C76.3108 8.97793 75.7547 8.81767 75.2927 8.49653C74.8307 8.1754 74.4887 7.71144 74.3201 7.17706C74.1649 6.47179 74.2911 5.73424 74.6721 5.11942C75.0531 4.50459 75.6593 4.06038 76.3633 3.88014L92.4533 0.0760061C93.0962 -0.0801077 93.775 0.0177262 94.3468 0.348892C94.9185 0.680059 95.3384 1.21869 95.518 1.85127C95.7256 2.41995 95.7002 3.04685 95.447 3.59705C95.1939 4.14726 94.7333 4.57676 94.1644 4.79313H93.7302L77.3849 8.85088L76.8741 8.95232Z" fill="#FEE856"/>
<path d="M83.259 51.5585H83.0036C82.3298 51.4943 81.7092 51.1671 81.2782 50.6487C80.8472 50.1304 80.641 49.4634 80.7051 48.7942L85.0468 3.65177C85.1114 2.98265 85.441 2.36638 85.963 1.9384C86.485 1.51041 87.1567 1.30571 87.8306 1.36928C88.1325 1.36255 88.4327 1.41494 88.7142 1.52347C88.9957 1.63199 89.2529 1.79452 89.4711 2.00177C89.6893 2.20903 89.8642 2.45694 89.9859 2.73135C90.1076 3.00576 90.1736 3.30128 90.1802 3.60105C90.2055 3.78618 90.2055 3.97385 90.1802 4.15898L85.813 49.276C85.6976 49.8817 85.3853 50.433 84.9239 50.8453C84.4625 51.2576 83.8777 51.5082 83.259 51.5585Z" fill="#FEE856"/>
<path d="M46.2266 58.4063L44.6942 57.8991C44.4325 57.7493 44.2031 57.5498 44.019 57.312C43.835 57.0741 43.7 56.8026 43.6217 56.5128C43.5435 56.2231 43.5235 55.921 43.5629 55.6236C43.6023 55.3262 43.7003 55.0394 43.8514 54.7797C43.9476 54.6255 44.0588 54.4811 44.1834 54.3485C55.1655 39.132 48.2698 15.5464 48.0144 15.2928C47.9842 14.607 48.0705 13.9211 48.2698 13.2639C48.4806 12.9809 48.7484 12.7445 49.0561 12.5698C49.3639 12.3952 49.705 12.2861 50.0575 12.2494L60.018 9.96696C60.3631 9.80099 60.7415 9.71432 61.1249 9.71339C61.5084 9.71245 61.8872 9.79729 62.2331 9.96158C62.5791 10.1259 62.8833 10.3654 63.1233 10.6624C63.3632 10.9595 63.5328 11.3063 63.6193 11.6773C63.7058 12.0483 63.7071 12.4338 63.623 12.8054C63.539 13.1769 63.3717 13.5249 63.1337 13.8235C62.8957 14.122 62.5931 14.3636 62.2482 14.5301C61.9034 14.6967 61.5252 14.784 61.1417 14.7855L53.7353 16.5608C55.523 23.6619 58.8432 43.1897 48.3719 57.3919C47.8182 57.9959 47.0479 58.3601 46.2266 58.4063Z" fill="#FEE856"/>
<path d="M53.8884 64.493L45.9712 63.9858C44.4388 63.9858 30.9028 62.9713 25.2841 56.3775C24.4277 55.365 23.7833 54.193 23.3886 52.9301C22.9939 51.6673 22.8569 50.3389 22.9856 49.0228C23.0994 48.4041 23.3393 47.815 23.6906 47.2916C24.042 46.7683 24.4973 46.3218 25.0287 45.9795C26.0166 45.389 27.1204 45.0156 28.2658 44.8844C29.4113 44.7531 30.5717 44.8671 31.669 45.2187C31.6649 45.253 31.6687 45.2878 31.6801 45.3204C31.6915 45.353 31.7102 45.3826 31.7347 45.4071C31.7593 45.4315 31.7892 45.45 31.822 45.4613C31.8549 45.4726 31.8899 45.4764 31.9244 45.4723C35.2705 46.6963 38.8367 47.2145 42.3956 46.994C46.482 46.7404 65.3813 44.9651 69.723 53.3342C70.3174 54.224 70.6758 55.2484 70.7651 56.3124C70.8544 57.3764 70.6716 58.4456 70.2338 59.4208C68.1906 62.7177 63.0827 64.493 53.8884 64.493ZM28.0935 50.0373C28.191 51.1587 28.6373 52.2222 29.3705 53.0806C32.946 57.1383 42.9064 58.66 46.2266 58.9136C63.5935 60.4352 65.6367 57.1383 65.6367 57.1383L65.3813 56.1239V55.6167C63.5935 51.8125 51.0791 51.3053 43.4172 52.0661H42.9064C38.577 52.241 34.2513 51.6396 30.1367 50.2909L28.0935 50.0373Z" fill="#FEE856"/>
<path d="M34.2231 36.8496C34.1674 37.339 33.9538 37.7974 33.6141 38.1564C33.2744 38.5153 32.827 38.7555 32.3385 38.8411C31.8501 38.9267 31.3468 38.8531 30.904 38.6313C30.4611 38.4095 30.1024 38.0514 29.8814 37.6105L28.8598 34.8208L26.5612 40.6538C26.3927 40.9944 26.1423 41.2886 25.832 41.5102C25.5217 41.7317 25.1611 41.8739 24.7823 41.9241C24.4034 41.9742 24.018 41.9308 23.66 41.7977C23.3021 41.6646 22.9828 41.4459 22.7303 41.161L18.8993 36.3424V37.6105C18.8273 38.3901 18.4626 39.1143 17.8778 39.6393C17.2528 39.9752 16.5236 40.0657 15.8346 39.8929L9.7051 38.1177L19.6655 48.5156C20.0021 48.8355 20.2316 49.2502 20.323 49.7038C20.4144 50.1575 20.3632 50.628 20.1763 51.0517C20.0283 51.4085 19.7821 51.7166 19.466 51.9409C19.1498 52.1652 18.7764 52.2965 18.3885 52.3198L13.536 52.827L18.1332 55.1095C18.6327 55.288 19.0426 55.6525 19.2762 56.1258C19.5098 56.5992 19.5487 57.1442 19.3846 57.6456C19.3287 57.8072 19.2514 57.9607 19.1547 58.1021C18.975 58.5981 18.6079 59.0052 18.1312 59.2371C17.6545 59.4691 17.1056 59.5077 16.6008 59.3448L16.1411 59.1165L4.39287 53.2835C3.9871 52.997 3.65843 52.6159 3.43577 52.1736C3.2131 51.7314 3.10326 51.2417 3.11589 50.7474C3.27554 50.3029 3.54712 49.9064 3.90476 49.5957C4.26241 49.2849 4.69421 49.0703 5.15905 48.9721L13.3317 48.2113L0.766247 35.0744C0.397273 34.7767 0.14439 34.3605 0.0511548 33.8976C-0.0420809 33.4347 0.030168 32.954 0.255457 32.5383C0.463835 32.0706 0.844432 31.6998 1.31927 31.5017C1.7941 31.3037 2.32723 31.2935 2.80941 31.4731H2.93711L14.1745 34.5164V29.7486C14.217 29.2657 14.4131 28.8088 14.7345 28.444C15.056 28.0793 15.486 27.8256 15.9623 27.7197C16.4173 27.6006 16.8965 27.6086 17.3472 27.7429C17.7979 27.8771 18.2024 28.1324 18.5163 28.4805L23.6242 35.0744L26.4335 27.9733C26.6294 27.5275 26.9502 27.147 27.3577 26.8772C27.7653 26.6075 28.2423 26.4597 28.7321 26.4517C29.195 26.4416 29.6479 26.5861 30.0184 26.862C30.3888 27.1379 30.6553 27.5292 30.7752 27.9733L34.0954 35.8352L34.2231 36.8496Z" fill="#FEE856"/>
</svg>
