<svg width="132" height="83" viewBox="0 0 132 83" fill="none" xmlns="http://www.w3.org/2000/svg">
<g clip-path="url(#clip0_1_937)">
<path d="M77.4791 33.4934H30.7878C30.3773 33.529 29.9804 33.6576 29.6271 33.8694C29.2738 34.0812 28.9734 34.3707 28.7488 34.7158L23.8554 41.0315H21.6126C21.1835 41.0018 20.7538 41.0793 20.3622 41.2572C19.9706 41.435 19.6295 41.7075 19.3698 42.0501L6.93233 60.3859C6.70327 60.6665 6.54636 60.9989 6.47529 61.354C6.40421 61.7091 6.42112 62.0761 6.52455 62.4232C6.54714 62.7577 6.65201 63.0815 6.82985 63.3658C7.00768 63.6501 7.25299 63.8862 7.54401 64.0531H8.97126C9.40036 64.0827 9.83011 64.0052 10.2217 63.8273C10.6133 63.6495 10.9543 63.377 11.2141 63.0344L22.836 45.7173H74.6246C76.002 45.538 77.2774 44.8957 78.2409 43.896C79.2043 42.8962 79.7986 41.5986 79.9258 40.2165V36.1419C79.9655 35.8185 79.9379 35.4904 79.8446 35.1783C79.7513 34.8661 79.5944 34.5765 79.3838 34.3278C79.1732 34.0791 78.9134 33.8766 78.6207 33.733C78.328 33.5894 78.0088 33.5078 77.683 33.4934H77.4791ZM74.8285 40.2165C74.8285 40.4203 74.4208 40.624 73.8091 41.0315H30.5839L32.215 38.7904H74.6246L74.8285 40.2165Z" fill="#FEE856"/>
<path d="M129.676 34.1045C129.2 33.7133 128.643 33.4347 128.044 33.2896H77.4791C76.7761 33.2896 76.1019 33.5686 75.6048 34.0653C75.1078 34.562 74.8285 35.2356 74.8285 35.9381C74.8285 36.6405 75.1078 37.3141 75.6048 37.8108C76.1019 38.3075 76.7761 38.5866 77.4791 38.5866H124.986L103.577 65.479C103.191 66.0367 103.02 66.7149 103.095 67.3888C103.17 68.0627 103.486 68.6868 103.985 69.1462C104.407 69.6127 104.989 69.9036 105.616 69.9611C106.008 69.9416 106.392 69.841 106.743 69.6657C107.094 69.4903 107.404 69.2441 107.655 68.9425L129.676 41.0313C130.559 40.094 131.051 38.8552 131.051 37.5679C131.051 36.2806 130.559 35.0418 129.676 34.1045Z" fill="#FEE856"/>
<path d="M87.8776 33.4933C87.2106 33.5447 86.5876 33.8463 86.1338 34.3375C85.68 34.8287 85.4289 35.4733 85.4309 36.1418V45.5134C85.4809 46.1392 85.7586 46.725 86.2116 47.16C86.6646 47.595 87.2614 47.8491 87.8892 47.8742C88.5169 47.8993 89.1321 47.6937 89.6184 47.2962C90.1047 46.8987 90.4284 46.3369 90.5282 45.7171V36.1418C90.5396 35.7909 90.4788 35.4415 90.3496 35.115C90.2204 34.7885 90.0255 34.492 89.7771 34.2438C89.5287 33.9956 89.2319 33.8009 88.9052 33.6718C88.5785 33.5427 88.2288 33.482 87.8776 33.4933Z" fill="#FEE856"/>
<path d="M95.8294 33.4935C95.1624 33.5449 94.5394 33.8465 94.0856 34.3377C93.6318 34.8289 93.3807 35.4735 93.3827 36.142V45.5136C93.4327 46.1394 93.7104 46.7252 94.1634 47.1602C94.6164 47.5952 95.2132 47.8493 95.8409 47.8744C96.4687 47.8995 97.0839 47.6938 97.5702 47.2964C98.0565 46.8989 98.3802 46.3371 98.48 45.7173V36.142C98.5076 35.7872 98.4579 35.4306 98.3345 35.0967C98.211 34.7629 98.0167 34.4598 97.7648 34.2081C97.513 33.9565 97.2096 33.7623 96.8755 33.6389C96.5414 33.5156 96.1845 33.4659 95.8294 33.4935Z" fill="#FEE856"/>
<path d="M103.985 33.4933C103.318 33.5447 102.695 33.8463 102.241 34.3375C101.788 34.8287 101.536 35.4733 101.538 36.1418V45.5134C101.588 46.1392 101.866 46.725 102.319 47.16C102.772 47.595 103.369 47.8491 103.997 47.8742C104.624 47.8993 105.24 47.6937 105.726 47.2962C106.212 46.8987 106.536 46.3369 106.636 45.7171V36.1418C106.647 35.7909 106.586 35.4415 106.457 35.115C106.328 34.7885 106.133 34.492 105.885 34.2438C105.636 33.9956 105.34 33.8009 105.013 33.6718C104.686 33.5427 104.336 33.482 103.985 33.4933Z" fill="#FEE856"/>
<path d="M107.451 34.1046L86.0427 17.195L84.4115 16.7875H44.0408C43.564 16.7758 43.0917 16.8811 42.6651 17.0942C42.2385 17.3073 41.8708 17.6217 41.5941 18.0099L32.6228 34.9196C32.3984 35.5805 32.3965 36.2966 32.6174 36.9587C32.8383 37.6208 33.2698 38.1925 33.8462 38.5867H35.0695C35.5396 38.5829 35.9991 38.4472 36.3956 38.195C36.7922 37.9429 37.1098 37.5844 37.3124 37.1606L45.4681 21.8808H83.596L104.189 38.383L106.228 38.7905L107.859 37.7718C108.335 37.1931 108.62 36.4814 108.675 35.7345C108.267 35.1233 108.063 34.3084 107.451 34.1046Z" fill="#FEE856"/>
<path d="M86.2465 17.1949L74.6246 8.23069C74.4564 8.00332 74.2426 7.81344 73.9968 7.67314C73.7511 7.53284 73.4789 7.44519 73.1974 7.41577H39.1473C37.2412 7.48397 35.4351 8.28481 34.1055 9.65127C32.7759 11.0177 32.0256 12.8443 32.0111 14.7501C32.0057 15.688 32.1866 16.6177 32.5433 17.4852C32.9 18.3528 33.4255 19.141 34.0892 19.8042C34.7529 20.4674 35.5418 20.9925 36.41 21.3489C37.2783 21.7053 38.2087 21.8861 39.1473 21.8807H84.6154C85.1387 21.8807 85.6502 21.7259 86.0857 21.4359C86.5211 21.1458 86.8608 20.7335 87.0621 20.2508C87.2113 19.7151 87.2144 19.1492 87.071 18.6118C86.9276 18.0745 86.6429 17.5852 86.2465 17.1949ZM76.8675 16.5837H39.1473C38.6448 16.4818 38.1833 16.2342 37.8207 15.8719C37.4581 15.5096 37.2104 15.0485 37.1084 14.5464C37.1084 14.006 37.3232 13.4878 37.7056 13.1058C38.088 12.7237 38.6066 12.509 39.1473 12.509H72.1779L76.8675 16.5837Z" fill="#FEE856"/>
<path d="M97.6645 26.3628L86.2465 17.1949L84.6154 16.7875H64.6339C63.6953 16.7821 62.7649 16.9628 61.8966 17.3192C61.0284 17.6757 60.2395 18.2007 59.5758 18.8639C58.912 19.5271 58.3866 20.3154 58.0299 21.1829C57.6732 22.0505 57.4923 22.9801 57.4977 23.9181C57.5122 25.8238 58.2625 27.6504 59.5921 29.0169C60.9216 30.3833 62.7278 31.1842 64.6339 31.2524H96.0334C96.5567 31.2524 97.0682 31.0976 97.5036 30.8076C97.9391 30.5175 98.2788 30.1052 98.4801 29.6225C98.6422 29.0554 98.6523 28.4557 98.5091 27.8836C98.366 27.3114 98.0747 26.7869 97.6645 26.3628ZM88.2854 25.5479H64.6339C64.0932 25.5479 63.5746 25.3333 63.1922 24.9512C62.8098 24.5691 62.595 24.0509 62.595 23.5106C62.6969 23.0084 62.9447 22.5474 63.3073 22.185C63.6699 21.8227 64.1313 21.5751 64.6339 21.4733H83.5959L88.2854 25.5479Z" fill="#FEE856"/>
<path d="M53.216 8.84182L49.1381 1.30378C48.7866 0.682401 48.2025 0.225991 47.5142 0.0349557C46.826 -0.156079 46.0899 -0.0660898 45.4681 0.285123C44.8462 0.636337 44.3894 1.22 44.1982 1.90773C44.0071 2.59546 44.0971 3.3309 44.4486 3.95228L48.5265 11.2866C48.729 11.7104 49.0466 12.0689 49.4432 12.321C49.8397 12.5732 50.2992 12.7089 50.7693 12.7127L52.1965 12.3052C52.4947 12.1749 52.7597 11.979 52.9715 11.732C53.1833 11.4851 53.3366 11.1936 53.4199 10.8791C53.4533 10.1937 53.3846 9.50708 53.216 8.84182Z" fill="#FEE856"/>
<path d="M62.1873 0.081543H37.924C37.2978 0.131472 36.7115 0.408984 36.2761 0.861598C35.8408 1.31421 35.5865 1.91055 35.5614 2.53782C35.5363 3.1651 35.7421 3.77982 36.1399 4.26573C36.5377 4.75165 37.0999 5.07506 37.7202 5.17482H62.1873C62.887 5.1643 63.555 4.88189 64.0499 4.38746C64.5447 3.89303 64.8273 3.22546 64.8379 2.52631C64.7489 1.87466 64.4357 1.27426 63.9521 0.828164C63.4684 0.382068 62.8444 0.118093 62.1873 0.081543Z" fill="#FEE856"/>
<path d="M131.103 75.6657C127.978 73.1656 124.096 71.8007 120.093 71.7948C116.236 71.7261 112.479 73.0254 109.49 75.462C107.336 76.841 104.839 77.5908 102.281 77.6268C99.7232 77.6628 97.206 76.9835 95.0139 75.6657C91.8891 73.1656 88.0068 71.8007 84.0037 71.7948C80.1468 71.7261 76.3903 73.0254 73.4013 75.462C71.2472 76.841 68.7502 77.5908 66.1922 77.6268C63.6342 77.6628 61.117 76.9835 58.9249 75.6657C55.8001 73.1656 51.9178 71.8007 47.9147 71.7948C44.0578 71.7261 40.3013 73.0254 37.3123 75.462C35.1582 76.841 32.6612 77.5908 30.1032 77.6268C27.5452 77.6628 25.0281 76.9835 22.836 75.6657C19.7111 73.1656 15.8289 71.8007 11.8258 71.7948C7.96884 71.7261 4.21234 73.0254 1.22336 75.462C0.407786 75.6657 0.203893 76.4806 0 77.0918C0.0370913 77.787 0.174438 78.4732 0.407787 79.1292C0.870572 79.5836 1.42732 79.9313 2.03893 80.1478C2.74367 80.2112 3.45173 80.0697 4.07785 79.7403C6.33072 78.0839 9.06314 77.2075 11.86 77.2442C14.6568 77.281 17.3652 78.229 19.5737 79.9441C22.5898 81.958 26.1408 83.0225 29.7683 83C33.5142 82.9756 37.1555 81.7628 40.1668 79.5366C42.4197 77.8801 45.1521 77.0037 47.949 77.0405C50.7458 77.0773 53.4542 78.0252 55.6627 79.7403C58.6788 81.7543 62.2298 82.8187 65.8573 82.7963C69.6032 82.7719 73.2444 81.5591 76.2558 79.3329C78.5087 77.6764 81.2411 76.8 84.0379 76.8368C86.8348 76.8735 89.5432 77.8215 91.7516 79.5366C94.7678 81.5505 98.3187 82.615 101.946 82.5926C105.76 82.6001 109.476 81.3863 112.549 79.1292C114.68 77.4216 117.364 76.552 120.093 76.6844C122.891 76.7222 125.605 77.6499 127.841 79.3329L129.88 79.7403L131.511 78.7217C131.729 78.4356 131.88 78.1033 131.951 77.7502C132.021 77.3971 132.01 77.0326 131.918 76.6844C132.122 76.6844 131.715 75.8694 131.103 75.6657Z" fill="#FEE856"/>
<path d="M131.103 62.8308C127.986 60.5158 124.214 59.2488 120.33 59.2121C116.446 59.1755 112.651 60.3712 109.49 62.627C107.392 64.1466 104.876 64.9818 102.284 65.0182C99.6933 65.0547 97.1541 64.2907 95.0139 62.8308C91.8967 60.5158 88.1246 59.2488 84.2409 59.2121C80.3571 59.1755 76.5618 60.3712 73.4014 62.627C71.3032 64.1466 68.7865 64.9818 66.1954 65.0182C63.6043 65.0547 61.0651 64.2907 58.925 62.8308C55.8077 60.5158 52.0357 59.2488 48.1519 59.2121C44.2681 59.1755 40.4728 60.3712 37.3124 62.627C35.2142 64.1466 32.6976 64.9818 30.1065 65.0182C27.5153 65.0547 24.9762 64.2907 22.836 62.8308C19.6913 60.3907 15.8068 59.0969 11.8258 59.1636C8.01204 59.1561 4.29621 60.3699 1.2234 62.627C0.666005 63.0359 0.276085 63.633 0.126084 64.3075C-0.0239163 64.982 0.0762008 65.6879 0.407834 66.2942C0.802576 66.8694 1.37575 67.299 2.03897 67.5166L4.0779 67.1091C6.33077 65.4526 9.06319 64.5762 11.86 64.613C14.6569 64.6498 17.3653 65.5977 19.5737 67.3128C22.5899 69.3268 26.1408 70.3912 29.7684 70.3688C33.5142 70.3444 37.1555 69.1316 40.1669 66.9054C42.4197 65.2489 45.1522 64.3725 47.949 64.4093C50.7458 64.446 53.4542 65.394 55.6627 67.1091C58.6788 69.123 62.2298 70.1875 65.8573 70.1651C69.6032 70.1406 73.2445 68.9278 76.2558 66.7016C78.5087 65.0452 81.2411 64.1688 84.038 64.2055C86.8348 64.2423 89.5432 65.1903 91.7517 66.9054C94.8178 69.014 98.4604 70.1259 102.182 70.0895C105.904 70.053 109.525 68.8699 112.549 66.7016C114.643 64.9071 117.335 63.9621 120.093 64.0531C122.891 64.091 125.605 65.0187 127.841 66.7016C128.42 67.1771 129.132 67.4618 129.88 67.5166C130.543 67.299 131.116 66.8694 131.511 66.2942C131.724 66.0877 131.876 65.8256 131.948 65.5375C132.02 65.2494 132.01 64.9469 131.918 64.6643C131.952 64.3144 131.895 63.9616 131.752 63.6403C131.609 63.319 131.386 63.0401 131.103 62.8308Z" fill="#FEE856"/>
</g>
<defs>
<clipPath id="clip0_1_937">
<rect width="132" height="83" fill="white"/>
</clipPath>
</defs>
</svg>
