<svg width="132" height="75" viewBox="0 0 132 75" fill="none" xmlns="http://www.w3.org/2000/svg">
<path d="M81.3863 66.5594H51.2878C50.6342 66.5317 50.0111 66.2752 49.5271 65.8345C49.043 65.3937 48.7288 64.7969 48.6392 64.1479C48.6454 63.4463 48.9265 62.7752 49.4219 62.2791C49.9172 61.7829 50.5873 61.5014 51.2878 61.4951H81.3863C81.9853 61.4921 82.5639 61.7128 83.0092 62.1142C83.4544 62.5155 83.7343 63.0686 83.7942 63.6656V63.9067C83.828 64.2431 83.7907 64.5828 83.6849 64.9038C83.5791 65.2248 83.4071 65.52 83.1801 65.7701C82.953 66.0202 82.676 66.2198 82.367 66.3558C82.058 66.4917 81.7239 66.5611 81.3863 66.5594Z" fill="#FEE856"/>
<path d="M124.487 66.5595H121.357C120.719 66.5595 120.106 66.3054 119.655 65.8532C119.203 65.4009 118.949 64.7875 118.949 64.1479C118.877 63.5439 119.036 62.935 119.393 62.443C119.75 61.9511 120.28 61.6125 120.876 61.4952H123.765C124.836 61.017 125.747 60.2392 126.388 59.2553C127.028 58.2714 127.372 57.1232 127.377 55.9486V47.2669C127.377 46.7846 127.377 37.6206 113.652 35.4502C108.634 34.7145 104.033 32.2397 100.649 28.4566C97.057 23.1847 93.9155 17.6183 91.2587 11.8167C91.2587 11.8167 86.6837 4.82315 80.1824 4.82315H44.7866C42.4413 5.19197 40.1918 6.02091 38.1671 7.26242C36.1424 8.50393 34.3824 10.1336 32.988 12.0579C29.4412 17.526 26.3024 23.249 23.5972 29.1801C23.5972 29.4212 23.3564 29.4212 23.3564 29.6624C19.7824 33.0611 15.2355 35.2536 10.3539 35.9325C10.1131 35.9325 4.81576 37.1383 4.81576 40.7556V55.9486C5.05655 56.1897 5.77891 60.5306 9.87231 61.0129H12.7618C13.4623 61.0192 14.1323 61.3007 14.6277 61.7968C15.1231 62.2929 15.4042 62.964 15.4104 63.6656C15.3121 64.3108 14.9952 64.9026 14.513 65.3417C14.0307 65.7807 13.4124 66.0404 12.7618 66.0772H9.39073C6.97902 65.7399 4.74768 64.6092 3.04773 62.8629C1.34777 61.1167 0.275646 58.8541 0 56.4309V40.9968C0 34.7267 6.26049 31.8328 9.39073 31.3505C12.968 30.9206 16.3286 29.406 19.0223 27.0096C21.8492 20.8613 25.0663 14.9006 28.6538 9.16399C30.4601 6.66218 32.7597 4.55811 35.4104 2.98188C38.061 1.40564 41.0063 0.390766 44.0642 0H79.9416C89.3324 0 95.1113 8.92283 95.3521 9.40514C97.9704 14.8712 101.031 20.1138 104.502 25.0804C107.391 29.4212 114.134 30.1447 114.134 30.1447C131.952 32.7974 131.952 46.7846 131.952 46.7846V55.7074C131.952 62.9421 124.969 65.836 124.728 66.0772L124.487 66.5595Z" fill="#FEE856"/>
<path d="M9.14993 49.9196H3.37102C2.73241 49.9196 2.11996 49.6655 1.6684 49.2132C1.21683 48.761 0.963141 48.1476 0.963141 47.508C0.963141 46.8684 1.21683 46.255 1.6684 45.8028C2.11996 45.3505 2.73241 45.0964 3.37102 45.0964H7.46442L8.66836 40.9968H3.13023C2.42971 40.9905 1.75965 40.709 1.26429 40.2128C0.76892 39.7167 0.487851 39.0456 0.481567 38.344C0.579947 37.6988 0.896808 37.107 1.37904 36.668C1.86127 36.2289 2.47955 35.9692 3.13023 35.9324H11.7986C12.1754 35.9135 12.5508 35.9924 12.8883 36.1614C13.2257 36.3304 13.5139 36.5838 13.7249 36.8971C14 37.2295 14.1698 37.6365 14.2127 38.0661C14.2556 38.4956 14.1696 38.9283 13.9657 39.3087L11.317 47.9903C11.3117 48.263 11.2501 48.5316 11.1361 48.7793C11.0221 49.027 10.8582 49.2484 10.6547 49.4296C10.4512 49.6107 10.2124 49.7478 9.95347 49.8321C9.69451 49.9165 9.42093 49.9462 9.14993 49.9196Z" fill="#FEE856"/>
<path d="M58.5115 31.5918H28.413C27.9502 31.5687 27.4972 31.4496 27.0827 31.242C26.6682 31.0344 26.3013 30.7429 26.0052 30.386C25.7637 29.6003 25.7637 28.7601 26.0052 27.9744L33.7104 12.7815C34.6662 11.139 35.9512 9.71254 37.4845 8.59192C39.0178 7.4713 40.7662 6.68081 42.6195 6.27021C42.6195 6.02905 42.8603 6.02905 43.1011 6.02905H58.2707C58.9713 6.03535 59.6413 6.31685 60.1367 6.81297C60.6321 7.3091 60.9131 7.98018 60.9194 8.68178V29.4213C60.8595 30.0183 60.5796 30.5714 60.1344 30.9727C59.6891 31.374 59.1105 31.5948 58.5115 31.5918ZM32.0249 26.7686H56.1037V11.0934H43.8235C41.5659 12.035 39.5793 13.5273 38.0446 15.4342L32.0249 26.7686Z" fill="#FEE856"/>
<path d="M97.7599 31.5917H66.6982C66.0447 31.564 65.4215 31.3075 64.9375 30.8667C64.4534 30.426 64.1392 29.8292 64.0496 29.1802V8.68178C64.0558 7.98018 64.3369 7.3091 64.8323 6.81297C65.3277 6.31685 65.9977 6.03535 66.6982 6.02905H81.1455C81.6271 6.02905 85.9613 6.27021 90.777 13.5049C91.0497 14.0895 91.1024 14.7529 90.9254 15.3733C90.7484 15.9936 90.3537 16.5291 89.8139 16.8811C89.4142 17.2322 88.9008 17.4257 88.3692 17.4257C87.8376 17.4257 87.3241 17.2322 86.9244 16.8811C86.6836 16.64 86.6836 16.64 86.6836 16.3988C83.3126 11.3345 80.6639 10.8522 80.6639 10.8522H68.8653V26.5274H93.1849L90.2955 20.9808C90.0377 20.7115 89.8458 20.386 89.7349 20.0298C89.624 19.6736 89.5972 19.2965 89.6564 18.9282C89.7157 18.5599 89.8595 18.2103 90.0765 17.9071C90.2935 17.6038 90.5778 17.3552 90.907 17.1806C91.2362 17.006 91.6014 16.9104 91.9738 16.9011C92.3462 16.8918 92.7157 16.9692 93.0531 17.1272C93.3906 17.2851 93.6869 17.5194 93.9187 17.8115C94.1504 18.1035 94.3114 18.4455 94.3889 18.8104L99.927 27.9744C100.277 28.3268 100.473 28.8037 100.473 29.3007C100.473 29.7978 100.277 30.2747 99.927 30.6271C99.3347 31.1854 98.5705 31.5255 97.7599 31.5917Z" fill="#FEE856"/>
<path d="M70.7917 37.6205H66.2167C65.5781 37.6205 64.9656 37.3664 64.5141 36.9142C64.0625 36.4619 63.8088 35.8485 63.8088 35.2089C63.7367 34.6049 63.8951 33.996 64.2523 33.504C64.6095 33.0121 65.1392 32.6735 65.7351 32.5562H70.5509C71.1499 32.5532 71.7285 32.7739 72.1737 33.1752C72.619 33.5765 72.8989 34.1297 72.9587 34.7266V34.9678C73.0274 35.2896 73.0228 35.6229 72.9455 35.9427C72.8681 36.2626 72.7199 36.561 72.5118 36.8157C72.3037 37.0705 72.041 37.2751 71.7433 37.4144C71.4455 37.5537 71.1203 37.6241 70.7917 37.6205Z" fill="#FEE856"/>
<path d="M32.7471 37.6207H28.4129C27.7594 37.593 27.1362 37.3364 26.6522 36.8957C26.1682 36.455 25.8539 35.8581 25.7643 35.2091C25.7706 34.5075 26.0516 33.8364 26.547 33.3403C27.0424 32.8442 27.7124 32.5627 28.4129 32.5564H32.7471C33.4477 32.5627 34.1177 32.8442 34.6131 33.3403C35.1084 33.8364 35.3895 34.5075 35.3958 35.2091C35.3062 35.8581 34.9919 36.455 34.5079 36.8957C34.0238 37.3364 33.4007 37.593 32.7471 37.6207Z" fill="#FEE856"/>
<path d="M129.785 49.9196H124.728C118.468 49.9196 115.337 43.4084 114.615 39.3087C114.507 38.9742 114.495 38.6161 114.58 38.2751C114.666 37.9341 114.844 37.6238 115.097 37.3794C115.295 37.1103 115.548 36.8855 115.838 36.7195C116.128 36.5534 116.45 36.4496 116.782 36.4148H125.691C126.345 36.4425 126.968 36.6991 127.452 37.1398C127.936 37.5805 128.25 38.1774 128.34 38.8264C128.334 39.528 128.053 40.1991 127.557 40.6952C127.062 41.1913 126.392 41.4728 125.691 41.4791H120.153C121.116 43.1672 122.079 45.5788 124.487 45.5788H129.544C130.183 45.5788 130.795 45.8329 131.247 46.2851C131.698 46.7374 131.952 47.3508 131.952 47.9904C132.193 48.955 131.229 49.9196 129.785 49.9196Z" fill="#FEE856"/>
<path d="M101.372 75.0001C98.3244 75.0474 95.3314 74.1887 92.7713 72.5325C90.2112 70.8763 88.199 68.497 86.989 65.6954C85.779 62.8939 85.4256 59.7959 85.9735 56.7932C86.5214 53.7906 87.946 51.018 90.0671 48.8262C92.1883 46.6343 94.9107 45.1216 97.8902 44.4793C100.87 43.8371 103.972 44.094 106.806 45.2178C109.64 46.3415 112.077 48.2815 113.81 50.7926C115.543 53.3036 116.493 56.2728 116.541 59.3249V59.8072C116.479 63.8172 114.861 67.6456 112.03 70.4814C109.198 73.3173 105.376 74.9379 101.372 75.0001ZM101.372 49.1963C99.9962 48.9587 98.5875 48.9949 97.2259 49.3026C95.8644 49.6104 94.5767 50.1837 93.4364 50.9899C91.1334 52.618 89.5705 55.0957 89.0915 57.8779C88.6126 60.6601 89.2568 63.519 90.8824 65.8255C92.5081 68.132 94.982 69.6973 97.7599 70.177C98.8707 70.4184 100.02 70.4184 101.131 70.177C103.907 69.6938 106.379 68.1277 108.004 65.8221C109.629 63.5165 110.274 60.6597 109.799 57.8779C109.622 55.6751 108.683 53.603 107.145 52.0185C105.607 50.4339 103.565 49.4359 101.372 49.1963Z" fill="#FEE856"/>
<path d="M101.372 66.3184C99.9907 66.3184 98.6406 65.9083 97.4923 65.1398C96.344 64.3713 95.449 63.2791 94.9205 62.0012C94.3919 60.7233 94.2537 59.3171 94.5231 57.9605C94.7925 56.6039 95.4576 55.3577 96.4341 54.3797C97.4107 53.4016 98.655 52.7355 100.009 52.4657C101.364 52.1958 102.768 52.3343 104.044 52.8637C105.32 53.393 106.411 54.2894 107.178 55.4395C107.945 56.5895 108.355 57.9417 108.355 59.3249V59.566C108.358 60.422 108.192 61.2701 107.866 62.0615C107.541 62.853 107.062 63.572 106.458 64.1773C105.853 64.7825 105.135 65.262 104.345 65.5881C103.555 65.9142 102.708 66.0805 101.853 66.0773C101.613 66.3184 101.613 66.3184 101.372 66.3184ZM101.372 57.6368C101.118 57.6335 100.866 57.6812 100.631 57.777C100.396 57.8728 100.182 58.0148 100.002 58.1946C99.8229 58.3744 99.6812 58.5884 99.5855 58.8239C99.4899 59.0594 99.4422 59.3118 99.4455 59.566C99.4455 60.0777 99.6484 60.5684 100.01 60.9302C100.371 61.292 100.861 61.4953 101.372 61.4953C101.883 61.4953 102.373 61.292 102.734 60.9302C103.095 60.5684 103.298 60.0777 103.298 59.566C103.539 58.6014 102.576 57.6368 101.372 57.6368Z" fill="#FEE856"/>
<path d="M31.784 75C28.7361 75 25.7566 74.0948 23.2224 72.3989C20.6882 70.703 18.713 68.2925 17.5466 65.4723C16.3802 62.6521 16.075 59.5488 16.6696 56.5549C17.2643 53.561 18.732 50.8109 20.8872 48.6524C23.0423 46.4939 25.7882 45.0239 28.7776 44.4284C31.7669 43.8329 34.8654 44.1385 37.6813 45.3067C40.4972 46.4749 42.904 48.4531 44.5973 50.9912C46.2906 53.5293 47.1944 56.5133 47.1944 59.5659V59.8071C47.204 61.8049 46.8181 63.7849 46.0592 65.6325C45.3002 67.4801 44.1832 69.1588 42.7727 70.5715C41.3621 71.9842 39.686 73.1029 37.8412 73.863C35.9965 74.6232 34.0195 75.0096 32.0248 75H31.784ZM31.784 49.1961C29.6886 49.1961 27.6402 49.8185 25.8979 50.9844C24.1556 52.1504 22.7977 53.8076 21.9958 55.7465C21.1939 57.6853 20.9841 59.8189 21.3929 61.8772C21.8017 63.9355 22.8107 65.8262 24.2924 67.3101C25.7741 68.7941 27.6619 69.8047 29.7171 70.2141C31.7722 70.6235 33.9025 70.4134 35.8384 69.6103C37.7743 68.8072 39.429 67.4472 40.5931 65.7022C41.7573 63.9572 42.3787 61.9057 42.3787 59.8071C42.4203 58.4427 42.1907 57.0837 41.7033 55.8091C41.2158 54.5344 40.4801 53.3695 39.5391 52.3821C38.5981 51.3948 37.4704 50.6047 36.2217 50.0577C34.9731 49.5107 33.6283 49.2179 32.2656 49.1961H31.784Z" fill="#FEE856"/>
<path d="M31.7841 66.3183C30.9294 66.3214 30.0826 66.1552 29.2924 65.8291C28.5022 65.503 27.7842 65.0235 27.1799 64.4183C26.5755 63.813 26.0968 63.0939 25.7712 62.3025C25.4456 61.5111 25.2796 60.663 25.2828 59.807C25.2134 58.4502 25.547 57.1033 26.2415 55.9363C26.936 54.7694 27.9602 53.8347 29.1848 53.2504C30.4094 52.6661 31.7794 52.4584 33.1218 52.6535C34.4642 52.8486 35.7188 53.4378 36.727 54.3466C37.7353 55.2554 38.452 56.4431 38.7866 57.7597C39.1213 59.0762 39.0588 60.4626 38.6072 61.7436C38.1556 63.0246 37.335 64.1429 36.2492 64.9571C35.1633 65.7713 33.8609 66.245 32.5064 66.3183H31.7841ZM31.7841 57.6366C31.326 57.7184 30.9094 57.9541 30.603 58.3048C30.2966 58.6555 30.1187 59.1003 30.0986 59.5658C30.0919 59.7893 30.1309 60.0118 30.2133 60.2197C30.2956 60.4275 30.4195 60.6163 30.5774 60.7744C30.7353 60.9325 30.9237 61.0566 31.1313 61.1391C31.3388 61.2215 31.5609 61.2606 31.7841 61.2539C32.2603 61.2745 32.7261 61.1106 33.0847 60.7962C33.4434 60.4819 33.6675 60.0413 33.7104 59.5658C33.7136 59.3116 33.666 59.0593 33.5703 58.8237C33.4747 58.5882 33.3329 58.3742 33.1534 58.1944C32.9739 58.0146 32.7602 57.8727 32.525 57.7768C32.2899 57.681 32.0379 57.6333 31.7841 57.6366Z" fill="#FEE856"/>
</svg>
