<svg width="142" height="92" viewBox="0 0 142 92" fill="none" xmlns="http://www.w3.org/2000/svg">
<path d="M119.433 0C116.361 0.0721455 113.438 1.33826 111.285 3.52939C109.133 5.72053 107.92 8.66404 107.904 11.7347C107.898 13.2493 108.192 14.75 108.77 16.1504C109.347 17.5508 110.196 18.8231 111.268 19.8941C112.34 20.9651 113.613 21.8135 115.014 22.3905C116.416 22.9675 117.917 23.2617 119.433 23.256C122.519 23.256 125.478 22.0309 127.661 19.8503C129.843 17.6696 131.069 14.712 131.069 11.628C131.069 8.54408 129.843 5.58645 127.661 3.40577C125.478 1.22509 122.519 0 119.433 0ZM119.433 18.7755C117.581 18.7218 115.82 17.9628 114.51 16.6539C113.201 15.3449 112.441 13.5851 112.387 11.7347C112.404 9.87252 113.152 8.09135 114.469 6.77455C115.787 5.45774 117.569 4.71058 119.433 4.69388C120.337 4.63545 121.244 4.76325 122.097 5.06938C122.95 5.3755 123.731 5.85343 124.391 6.47352C125.052 7.09362 125.578 7.84269 125.937 8.67428C126.296 9.50588 126.48 10.4023 126.478 11.308V11.7347C126.462 13.5969 125.714 15.378 124.396 16.6948C123.079 18.0116 121.296 18.7588 119.433 18.7755Z" fill="#FEE856"/>
<path d="M93.1721 56.3267L86.1265 66.9946C85.0734 68.3513 83.55 69.2647 81.8565 69.5549H63.2819V73.822H82.07C83.609 73.6896 85.1044 73.2425 86.4633 72.5084C87.8222 71.7744 89.0157 70.769 89.9696 69.5549L96.8016 59.1003V58.6736L93.1721 56.3267Z" fill="#FEE856"/>
<path d="M87.8346 42.2449L78.4405 59.5269H64.1359C62.2487 59.4789 60.4163 60.1631 59.0231 61.4361C57.6299 62.709 56.7842 64.4717 56.6633 66.3543V66.5677C56.7411 68.4844 57.5667 70.2944 58.9634 71.6104C60.36 72.9263 62.2167 73.6436 64.1359 73.6085H64.9899V69.3414H64.1359C63.3998 69.3414 62.6938 69.0491 62.1733 68.529C61.6528 68.0088 61.3604 67.3033 61.3604 66.5677C61.3604 65.8321 61.6528 65.1266 62.1733 64.6064C62.6938 64.0863 63.3998 63.794 64.1359 63.794H81.216L91.6776 44.8052V44.3785L87.8346 42.2449Z" fill="#FEE856"/>
<path d="M107.477 50.7793L117.725 30.7236C118.117 29.8502 118.204 28.8704 117.972 27.9416C117.739 27.0129 117.201 26.1892 116.444 25.603C113.672 23.3649 110.665 21.4334 107.477 19.8423L88.4751 15.3618L70.3275 28.8034H70.114C69.2632 29.9142 68.8202 31.2833 68.859 32.6816C68.8979 34.0799 69.4163 35.4224 70.3275 36.4843C71.4359 37.537 72.8847 38.1586 74.4118 38.2369C75.9389 38.3151 77.4437 37.8448 78.6541 36.911L90.8237 29.0167L95.3072 30.2969L87.1941 43.0984C85.4861 46.2987 83.1376 53.5529 88.9022 57.3934L103.847 66.7811L100.645 83.8498V84.7032C100.723 86.6199 101.548 88.4299 102.945 89.7459C104.341 91.0618 106.198 91.7791 108.117 91.744C109.688 91.7433 111.214 91.2179 112.452 90.2515C113.689 89.2851 114.569 87.933 114.949 86.4101L119.433 61.4472L107.477 50.7793ZM110.466 85.5566C110.266 86.1071 109.924 86.5947 109.473 86.9695C109.023 87.3444 108.482 87.5931 107.904 87.6902C107.203 87.6923 106.528 87.4295 106.013 86.9547C105.498 86.4798 105.182 85.8279 105.128 85.1299L108.971 64.8609L91.4642 53.9796C87.8346 51.4193 91.2507 45.872 91.2507 45.6587L102.353 28.3767L90.3967 24.5362H90.1832L76.519 33.4973C75.0245 34.3507 74.1705 33.924 73.7435 33.4973C73.5599 33.2997 73.441 33.0508 73.4028 32.7839C73.3647 32.517 73.4091 32.2448 73.53 32.0037L89.5427 20.0557L105.555 23.6828L113.455 28.8034H113.668L101.926 51.6327L114.736 63.3674L110.466 85.5566Z" fill="#FEE856"/>
<path d="M133.097 40.3247H123.276L117.725 27.3098H117.511L113.241 29.23L120.073 45.0185H133.097C133.436 44.977 133.78 45.006 134.107 45.1036C134.434 45.2012 134.737 45.3654 134.998 45.5858C135.259 45.8062 135.471 46.078 135.621 46.3843C135.772 46.6906 135.857 47.0246 135.873 47.3655V47.5788C135.862 48.311 135.566 49.0101 135.047 49.5279C134.529 50.0457 133.83 50.3415 133.097 50.3525H119.219L112.601 37.1243L108.758 38.8312L116.444 54.6197H133.311C135.236 54.9592 137.217 54.5205 138.819 53.4002C140.42 52.2798 141.511 50.5695 141.851 48.6456C142.19 46.7217 141.751 44.7417 140.63 43.1412C139.509 41.5407 137.798 40.4508 135.873 40.1113C134.96 39.8976 134.01 39.8976 133.097 40.1113V40.3247Z" fill="#FEE856"/>
<path d="M64.563 42.8849L59.4389 41.6048L64.563 38.4044C64.9015 38.1148 65.1725 37.7546 65.3569 37.3491C65.5414 36.9437 65.6347 36.5028 65.6305 36.0575V34.3506C65.6305 34.1372 65.417 34.1372 65.417 33.9239C64.8487 32.6704 63.8362 31.6715 62.5746 31.12C61.313 30.5684 59.8918 30.5032 58.5849 30.9369C54.1768 31.8916 49.8282 33.1027 45.5613 34.564H45.1343C44.2803 34.1372 40.2238 32.4304 34.2457 36.9109C33.8301 37.1802 33.5057 37.5689 33.3152 38.0258C33.1247 38.4828 33.0769 38.9866 33.1782 39.4712C33.3533 39.9419 33.6775 40.3425 34.1015 40.6121C34.5254 40.8817 35.0259 41.0055 35.5267 40.9647C35.5267 40.9647 40.4373 41.1781 40.8643 44.8051C40.8267 45.7428 40.6835 46.6732 40.4373 47.5788C37.4482 48.6456 23.3571 52.6994 18.6601 56.9665C13.963 61.2337 10.7605 59.1001 6.49048 55.6864C6.09139 55.2955 5.55482 55.0765 4.99597 55.0765C4.43713 55.0765 3.90056 55.2955 3.50146 55.6864L0.512436 58.0333C0.302548 58.213 0.15016 58.4504 0.0742367 58.7159C-0.00168625 58.9815 0.00220657 59.2635 0.0854313 59.5268C0.0983548 60.0529 0.245323 60.5669 0.512436 61.0204H0.725939C3.07446 63.5807 9.05251 69.9814 17.5926 67.6345C17.8061 70.8348 18.4466 78.7291 14.6036 85.1298C14.2735 85.545 14.0599 86.0405 13.9849 86.5655C13.9098 87.0904 13.976 87.6259 14.1765 88.1168C14.3811 88.7611 14.7134 89.3576 15.1536 89.8707C15.5937 90.3839 16.1328 90.8033 16.7386 91.1038L18.4466 91.9573H19.7276C20.432 92.0685 21.1524 91.9107 21.7458 91.5154C22.3391 91.1201 22.7619 90.5162 22.9301 89.8237C23.841 87.8121 24.6253 85.7456 25.2786 83.6363C25.9549 80.8264 26.958 78.1054 28.2677 75.5287L33.8187 69.768L43.2128 66.9944C42.2894 70.3654 40.771 73.5445 38.7292 76.3821C38.5356 76.7019 38.46 77.0793 38.5157 77.4489V78.3024C38.4944 78.6986 38.5598 79.0948 38.7073 79.4633C38.8547 79.8318 39.0808 80.1637 39.3698 80.4359L42.9993 83.2096C43.2157 83.4331 43.4903 83.5915 43.7922 83.667C44.0941 83.7424 44.4111 83.7318 44.7073 83.6363H45.3478L46.6288 83.2096C50.9403 77.6699 53.8021 71.1435 54.9554 64.2207C55.8147 59.5043 56.2434 54.7197 56.2364 49.9257L64.7765 48.2189C65.2474 48.0438 65.6483 47.7199 65.9181 47.2962C66.1879 46.8726 66.3118 46.3724 66.271 45.8719V45.0185C66.3349 44.4842 66.1945 43.9454 65.8777 43.5101C65.561 43.0749 65.0914 42.7754 64.563 42.6716C64.7765 42.8849 64.563 42.8849 64.563 42.8849ZM50.4718 63.1539C49.5161 68.7552 47.3285 74.0748 44.0668 78.7291L43.2128 78.089C46.159 73.9833 48.0638 69.2243 48.7638 64.2207C48.7851 63.8244 48.7198 63.4283 48.5723 63.0598C48.4248 62.6913 48.1987 62.3594 47.9098 62.0871C47.61 61.8582 47.2618 61.7007 46.8917 61.6267C46.5217 61.5528 46.1397 61.5643 45.7748 61.6604L42.7858 62.7272L31.8972 66.9944C31.5012 67.0016 31.1215 67.1534 30.8297 67.4211L25.0651 73.8218C23.1706 76.7415 21.8651 80.003 21.2221 83.423L20.7951 84.4897C20.3903 85.8042 19.8908 87.0877 19.3006 88.3302L18.4466 87.9035H18.2331C23.3571 79.5825 22.0761 68.2745 21.4356 65.0742C21.4325 64.7458 21.3284 64.4264 21.1374 64.1593C20.9464 63.8921 20.6779 63.6901 20.3681 63.5806C19.6725 63.3667 18.9287 63.3667 18.2331 63.5806C16.3778 64.2291 14.3794 64.3531 12.4582 63.9389C10.5369 63.5248 8.76735 62.5887 7.34449 61.2337C11.54 62.4426 16.0017 62.3683 20.1546 61.0204L21.0086 60.5936C23.7841 57.6066 35.3132 53.7662 41.9318 52.0593C44.4938 51.2059 44.9208 46.9387 44.9208 44.5918C44.8234 43.3533 44.4461 42.153 43.8175 41.0813C43.1888 40.0096 42.3251 39.0943 41.2913 38.4044H43.2128C44.4583 38.8303 45.8102 38.8303 47.0558 38.4044L59.4389 34.7773C59.9653 34.7902 60.4797 34.9371 60.9334 35.204L54.5284 39.2578C54.1957 39.5268 53.9688 39.9047 53.8879 40.3246H53.6744C52.6069 41.8181 53.8879 43.525 54.5284 44.1651C54.6404 44.413 54.8198 44.6245 55.0463 44.7754C55.2729 44.9264 55.5373 45.0106 55.8094 45.0185L53.4609 45.4452C52.9501 45.5815 52.5017 45.889 52.1907 46.3162C51.8798 46.7435 51.7252 47.2646 51.7528 47.7922C51.9367 52.7944 51.5787 57.8019 50.6853 62.7272L50.4718 63.1539Z" fill="#FEE856"/>
<path d="M65.844 24.9629L55.3824 14.5083C54.9833 14.1174 54.4467 13.8984 53.8879 13.8984C53.329 13.8984 52.7925 14.1174 52.3934 14.5083C51.9834 14.9404 51.7549 15.5131 51.7549 16.1085C51.7549 16.7039 51.9834 17.2767 52.3934 17.7087L62.8549 28.1632C63.0347 28.373 63.2723 28.5253 63.538 28.6012C63.8037 28.677 64.0859 28.6731 64.3495 28.59L65.844 28.1632C66.158 27.6886 66.3254 27.1321 66.3254 26.5631C66.3254 25.994 66.158 25.4376 65.844 24.9629Z" fill="#FEE856"/>
<path d="M70.5409 9.81451C70.5801 9.50667 70.5179 9.19446 70.3639 8.92503C70.2098 8.6556 69.9722 8.44358 69.6869 8.321L68.4059 7.89429C67.7654 8.10765 67.1249 8.321 66.9114 8.96108C66.4844 9.17444 66.4844 10.0279 66.4844 10.4546L67.9789 22.8294C68.0856 23.3553 68.3451 23.8381 68.7248 24.2176C69.1045 24.597 69.5876 24.8563 70.1139 24.9629H70.3274C70.9679 24.7496 71.6084 24.5362 71.8219 23.8961C72.2489 23.6828 72.2489 22.8294 72.2489 22.4026L70.5409 9.81451Z" fill="#FEE856"/>
<path d="M71.822 40.3247C71.2009 40.3303 70.6068 40.5793 70.1675 41.0183C69.7283 41.4572 69.4791 42.0509 69.4735 42.6716V52.4861C69.4735 53.1086 69.7209 53.7055 70.1614 54.1457C70.6018 54.5858 71.1992 54.8331 71.822 54.8331C72.4449 54.8331 73.0423 54.5858 73.4827 54.1457C73.9231 53.7055 74.1706 53.1086 74.1706 52.4861V42.6716C74.165 42.0509 73.9158 41.4572 73.4765 41.0183C73.0373 40.5793 72.4432 40.3303 71.822 40.3247Z" fill="#FEE856"/>
</svg>
