<svg width="20" height="16" viewBox="0 0 20 16" fill="none" xmlns="http://www.w3.org/2000/svg">
<path fill-rule="evenodd" clip-rule="evenodd" d="M19.7321 1.61798H0.267857C0.119924 1.61798 0 1.49725 0 1.34831V0.269663C0 0.120732 0.119924 0 0.267857 0H19.7321C19.8801 0 20 0.120732 20 0.269663V1.34831C20 1.49725 19.8801 1.61798 19.7321 1.61798ZM19.7321 8.80899H0.267857C0.119924 8.80899 0 8.68826 0 8.53933V7.46067C0 7.31174 0.119924 7.19101 0.267857 7.19101H19.7321C19.8801 7.19101 20 7.31174 20 7.46067V8.53933C20 8.68826 19.8801 8.80899 19.7321 8.80899ZM0.267857 16H19.7321C19.8801 16 20 15.8793 20 15.7303V14.6517C20 14.5028 19.8801 14.382 19.7321 14.382H0.267857C0.119924 14.382 0 14.5028 0 14.6517V15.7303C0 15.8793 0.119924 16 0.267857 16Z" fill="white"/>
</svg>
