<svg width="122" height="20" viewBox="0 0 122 20" fill="none" xmlns="http://www.w3.org/2000/svg">
<path fill-rule="evenodd" clip-rule="evenodd" d="M0 0.666656V20H10.6667V17.5588H2.65241V0.666656H0Z" fill="white"/>
<circle cx="120" cy="18.6667" r="1.33333" fill="#FF0000"/>
<path fill-rule="evenodd" clip-rule="evenodd" d="M24.2227 17.755V19.7262H26.6667V6.94044H24.2227V8.85694C23.3809 7.40588 21.5343 6.66666 19.7692 6.66666C16.2933 6.66666 13.3334 9.24024 13.3334 13.3196C13.3334 17.3717 16.2933 20 19.7692 20C21.5343 20 23.3809 19.206 24.2227 17.755ZM19.9864 9.10335C22.0231 9.10335 24.1955 10.5544 24.1955 13.2923C24.1955 16.0027 22.2403 17.5633 19.9864 17.5633C17.7053 17.5633 15.8588 15.8111 15.8588 13.2923C15.8588 10.7461 17.7053 9.10335 19.9864 9.10335Z" fill="white"/>
<path fill-rule="evenodd" clip-rule="evenodd" d="M45.7458 20L50.6667 6.66666H47.9076L44.5796 16.0028L41.2516 6.66666H38.7485L35.4205 16.0028L32.0925 6.66666H29.3334L34.3965 20H36.5014L40 10.207L43.6125 20H45.7458Z" fill="white"/>
<path fill-rule="evenodd" clip-rule="evenodd" d="M67.3333 20L62.4059 12.6763C65.8604 12.3677 67.2262 9.58973 67.2262 6.72761C67.2262 3.69714 65.6462 0.666656 61.7632 0.666656H54.6666V20H57.1839V12.7605H59.5405L64.3072 20H67.3333ZM57.1842 3.1079H61.6831C63.8255 3.1079 64.6557 4.95986 64.6557 6.72764C64.6557 8.52348 63.8255 10.3193 61.576 10.3193H57.1842V3.1079Z" fill="white"/>
<path fill-rule="evenodd" clip-rule="evenodd" d="M81.556 17.755V19.7262H84V6.94044H81.556V8.85694C80.7141 7.40588 78.8676 6.66666 77.1025 6.66666C73.6266 6.66666 70.6666 9.24024 70.6666 13.3196C70.6666 17.3717 73.6266 20 77.1025 20C78.8676 20 80.7141 19.206 81.556 17.755ZM77.3196 9.10335C79.3563 9.10335 81.5287 10.5544 81.5287 13.2923C81.5287 16.0027 79.5736 17.5633 77.3196 17.5633C75.0386 17.5633 73.192 15.8111 73.192 13.2923C73.192 10.7461 75.0386 9.10335 77.3196 9.10335Z" fill="white"/>
<path fill-rule="evenodd" clip-rule="evenodd" d="M91.2853 12.956C91.2853 10.1887 93.1846 9.15443 95.0839 9.15443C96.9256 9.15443 98.0479 10.4402 98.0479 12.6205V20H100.667V12.4528C100.667 8.79104 98.8249 6.66666 95.4868 6.66666C94.0191 6.66666 92.0911 7.33752 91.2853 8.90285V6.94618H88.6666V20H91.2853V12.956Z" fill="white"/>
<path fill-rule="evenodd" clip-rule="evenodd" d="M107.22 13.6755L113.262 20H116.667L109.631 12.6491L115.305 7.04577L113.262 5.53269L107.22 11.5673V0H104.667V20H107.22V13.6755Z" fill="white"/>
</svg>
