<svg width="179" height="32" viewBox="0 0 179 32" fill="none" xmlns="http://www.w3.org/2000/svg">
<path fill-rule="evenodd" clip-rule="evenodd" d="M0 1.35782V31.9131H15.3739V28.0549H3.82293V1.35782H0Z" fill="white"/>
<path d="M176.515 31.8766C177.615 31.8766 178.507 30.9055 178.507 29.7076C178.507 28.5097 177.615 27.5386 176.515 27.5386C175.415 27.5386 174.523 28.5097 174.523 29.7076C174.523 30.9055 175.415 31.8766 176.515 31.8766Z" fill="white"/>
<path fill-rule="evenodd" clip-rule="evenodd" d="M35.0206 31.562V28.408C33.7618 30.7297 31.0008 32 28.3615 32C23.1641 32 18.7383 27.7947 18.7383 21.3116C18.7383 14.7847 23.1641 10.667 28.3615 10.667C31.0008 10.667 33.7618 11.8497 35.0206 14.1714V11.105H38.6749V31.562H35.0206ZM34.98 21.2678C34.98 16.8873 31.7316 14.5656 28.6863 14.5656C25.2756 14.5656 22.5145 17.1939 22.5145 21.2678C22.5145 25.2979 25.2756 28.1014 28.6863 28.1014C32.0565 28.1014 34.98 25.6045 34.98 21.2678Z" fill="white"/>
<path fill-rule="evenodd" clip-rule="evenodd" d="M66.9029 32.0001L74.2282 10.6671H70.121L65.1668 25.6048L60.2127 10.6671H56.4865L51.5323 25.6048L46.5782 10.6671H42.4709L50.008 32.0001H53.1414L58.3496 16.3315L63.7271 32.0001H66.9029Z" fill="white"/>
<path fill-rule="evenodd" clip-rule="evenodd" d="M92.1807 20.3385L99.7443 31.9132H95.0992L87.7822 20.4716H84.1648V31.9132H80.3008V1.35791H91.1941C97.1546 1.35791 99.5799 6.14741 99.5799 10.9369C99.5799 15.4603 97.4834 19.8507 92.1807 20.3385ZM91.0708 5.21612H84.1648V16.6134H90.9063C94.3593 16.6134 95.6336 13.7751 95.6336 10.9369C95.6336 8.14304 94.3593 5.21612 91.0708 5.21612Z" fill="white"/>
<path fill-rule="evenodd" clip-rule="evenodd" d="M120.495 31.562V28.408C119.236 30.7297 116.475 32 113.836 32C108.639 32 104.213 27.7947 104.213 21.3116C104.213 14.7847 108.639 10.667 113.836 10.667C116.475 10.667 119.236 11.8497 120.495 14.1714V11.105H124.15V31.562H120.495ZM120.455 21.2678C120.455 16.8873 117.206 14.5656 114.161 14.5656C110.75 14.5656 107.989 17.1939 107.989 21.2678C107.989 25.2979 110.75 28.1014 114.161 28.1014C117.531 28.1014 120.455 25.6045 120.455 21.2678Z" fill="white"/>
<path fill-rule="evenodd" clip-rule="evenodd" d="M133.86 20.7298C133.86 16.3022 136.596 14.6475 139.332 14.6475C141.986 14.6475 143.602 16.7047 143.602 20.1932V32.0001H147.375V19.9248C147.375 14.0661 144.722 10.6671 139.913 10.6671C137.799 10.6671 135.021 11.7404 133.86 14.2449V11.1143H130.088V32.0001H133.86V20.7298Z" fill="white"/>
<path fill-rule="evenodd" clip-rule="evenodd" d="M157.166 21.8632L165.922 31.9743H170.855L160.66 20.2223L168.882 11.2642L165.922 8.8452L157.166 18.4928V0H153.467V31.9743H157.166V21.8632Z" fill="white"/>
</svg>
