<svg width="83" height="104" viewBox="0 0 83 104" fill="none" xmlns="http://www.w3.org/2000/svg">
<path d="M25.7639 47.0021C25.2272 46.8271 24.644 46.8628 24.1327 47.1019C23.6213 47.341 23.2202 47.7656 23.0107 48.2894C21.2709 52.5887 20.4783 57.212 20.6869 61.8448C20.8696 62.3621 21.1774 62.8263 21.5827 63.1962C21.9881 63.5661 22.4786 63.8302 23.0107 63.9652H23.238C23.8166 63.8658 24.3353 63.5489 24.6875 63.0795C25.0398 62.6101 25.1989 62.0238 25.1324 61.4409C25.2014 57.4642 25.918 53.5252 27.2541 49.7788C27.4381 49.2264 27.3951 48.6237 27.1346 48.103C26.8741 47.5824 26.4174 47.1864 25.8649 47.0021H25.7639Z" fill="#FEE856"/>
<path d="M70.8758 13.6311C72.1875 14.6142 73.7828 15.1456 75.4224 15.1456C77.42 15.1069 79.3249 14.2966 80.7376 12.8847C82.1504 11.4728 82.9612 9.56912 83 7.57282C82.9196 5.56438 82.0442 3.67013 80.5662 2.30676C79.0883 0.943384 77.129 0.222582 75.1193 0.30292C73.1096 0.383257 71.2141 1.25815 69.8499 2.73514C68.4857 4.21213 67.7644 6.17021 67.8448 8.17865C67.8696 8.78647 67.9715 9.38868 68.1479 9.97088L59.4589 14.5651H59.1558C57.2864 16.4069 56.0259 18.7765 55.5438 21.3553H52.2349C51.4588 19.9431 50.412 18.6975 49.1542 17.6896C47.8963 16.6817 46.4521 15.9313 44.9041 15.4812C43.356 15.0312 41.7344 14.8903 40.1319 15.0666C38.5293 15.2429 36.9772 15.7329 35.5642 16.5087C33.5137 17.623 31.8295 19.3062 30.7146 21.3553H27.3046C26.8336 18.7032 25.5545 16.2612 23.6421 14.3631H23.4401L14.7511 9.92039C15.0118 9.16483 15.1483 8.37203 15.1552 7.57282C15.1552 5.8669 14.5789 4.21094 13.5195 2.87326C12.4602 1.53557 10.9799 0.594528 9.31859 0.202587C7.65725 -0.189354 5.91215 -0.00922686 4.36604 0.713784C2.81994 1.43679 1.56339 2.66033 0.8 4.18616C0.0366051 5.71198 -0.188919 7.4507 0.159972 9.12062C0.508863 10.7905 1.41173 12.2938 2.72228 13.3869C4.03283 14.4799 5.6743 15.0988 7.38073 15.1431C9.08716 15.1874 10.7586 14.6546 12.1242 13.6311L20.7374 18.1243C21.5862 19.0143 22.187 20.1108 22.4802 21.3049H21.2678C20.7258 21.3043 20.2014 21.4973 19.7892 21.8491C19.377 22.2008 19.1041 22.6882 19.0198 23.2233H9.64882C8.13149 23.1128 6.63241 23.6093 5.48133 24.6034C4.33026 25.5975 3.6215 27.0079 3.51096 28.5243C3.40043 30.0406 3.89718 31.5388 4.89194 32.6891C5.88669 33.8395 7.29796 34.5478 8.81528 34.6583H18.9188C19.1087 35.0822 19.412 35.4456 19.7952 35.7083C20.1785 35.9711 20.6269 36.1231 21.091 36.1476H21.975C7.42605 57.2757 16.9233 82.0136 17.2517 82.9981L18.1105 84.0583C22.6551 86.9659 27.8771 88.6446 33.2657 88.9301V95.7204C33.259 97.9052 34.1193 100.004 35.658 101.556C37.1968 103.108 39.2886 103.987 41.4747 104C43.6949 104.014 45.831 103.152 47.4198 101.602C49.0085 100.052 49.9218 97.9389 49.9617 95.7204V88.8796C55.2348 88.5228 60.3374 86.8664 64.8138 84.0583L65.4452 82.9981C65.8494 82.2155 75.2961 57.4524 60.7219 36.1476H61.8332C62.2974 36.1231 62.7458 35.9711 63.129 35.7083C63.5123 35.4456 63.8156 35.0822 64.0055 34.6583H73.3007C74.8481 34.6583 76.3322 34.0439 77.4265 32.9504C78.5207 31.8568 79.1354 30.3737 79.1354 28.8272C79.1354 27.2807 78.5207 25.7975 77.4265 24.704C76.3322 23.6105 74.8481 22.9961 73.3007 22.9961H64.056C63.9154 22.5136 63.6237 22.0888 63.2235 21.7844C62.8234 21.4799 62.3361 21.3119 61.8332 21.3049H60.5956C60.9724 20.1603 61.5357 19.0856 62.2626 18.1243L70.8758 13.6311ZM75.4224 4.5437C76.1954 4.59675 76.923 4.9276 77.4709 5.47513C78.0188 6.02265 78.3498 6.74984 78.4029 7.52234C78.4029 8.11146 78.2281 8.68735 77.9006 9.17718C77.5731 9.66702 77.1076 10.0488 76.563 10.2742C76.0184 10.4997 75.4191 10.5587 74.8409 10.4437C74.2628 10.3288 73.7317 10.0451 73.3148 9.62855C72.898 9.21198 72.6142 8.68124 72.4991 8.10344C72.3841 7.52564 72.4432 6.92674 72.6688 6.38246C72.8943 5.83819 73.2764 5.37299 73.7665 5.04569C74.2567 4.71839 74.8329 4.5437 75.4224 4.5437ZM7.52709 10.501C6.9376 10.501 6.36135 10.3263 5.8712 9.99899C5.38106 9.67169 4.99904 9.20649 4.77345 8.66222C4.54786 8.11794 4.48884 7.51903 4.60384 6.94123C4.71885 6.36343 5.00271 5.83269 5.41955 5.41612C5.83638 4.99955 6.36746 4.71586 6.94562 4.60093C7.52379 4.486 8.12307 4.54499 8.66769 4.77043C9.21231 4.99588 9.6778 5.37766 10.0053 5.86749C10.3328 6.35733 10.5076 6.93322 10.5076 7.52234C10.5143 7.90688 10.4451 8.28898 10.304 8.6468C10.1629 9.00463 9.95269 9.33116 9.68529 9.60777C9.41789 9.88437 9.09859 10.1056 8.74562 10.2589C8.39264 10.4121 8.01292 10.4944 7.62813 10.501H7.52709ZM57.5898 25.9748H59.5094V31.4777H53.0432C53.5252 30.1155 53.7728 28.6817 53.7757 27.2369V25.9748H57.5898ZM41.4747 19.3864C42.9633 19.4105 44.4152 19.8514 45.6654 20.6591C46.9156 21.4668 47.9141 22.6088 48.5472 23.9554C48.6041 24.2944 48.724 24.6197 48.9008 24.9146C49.1675 25.6607 49.3125 26.4448 49.3302 27.2369V27.666C49.3288 29.1989 48.862 30.6952 47.9915 31.9573C47.6262 32.2217 47.3383 32.5791 47.1579 32.9922C46.3788 33.8251 45.43 34.4814 44.3756 34.9169C43.3211 35.3523 42.1856 35.5568 41.0454 35.5165C39.0218 35.489 37.0863 34.6846 35.64 33.2699C35.5593 32.928 35.4012 32.6091 35.1779 32.3377C34.9546 32.0664 34.672 31.8499 34.3518 31.7049C33.5432 30.3579 33.1399 28.8068 33.1899 27.2369C33.1934 26.6673 33.2612 26.1 33.392 25.5456C33.7148 25.3375 33.9823 25.0543 34.1715 24.7201C34.3606 24.386 34.4659 24.0109 34.4781 23.6272V23.1981C35.206 22.0041 36.2361 21.023 37.4645 20.3538C38.6929 19.6846 40.0761 19.3509 41.4747 19.3864ZM29.9063 31.4777H23.4401V25.9748H29.2243V27.2369C29.1976 28.6798 29.4286 30.1158 29.9063 31.4777ZM8.38589 28.9534C8.40935 28.6264 8.54994 28.3188 8.78189 28.087C9.01385 27.8552 9.32163 27.7147 9.64882 27.6913H18.7419V30.2155H9.64882C9.31756 30.1914 9.00649 30.0473 8.77397 29.8103C8.54145 29.5733 8.40346 29.2596 8.38589 28.9282V28.9534ZM41.4747 63.0816C44.8285 63.2418 48.0983 64.1841 51.0225 65.833V76.8641C48.7426 77.6756 46.3638 78.1766 43.9501 78.3534H38.9489C36.5352 78.1766 34.1563 77.6756 31.8765 76.8641V65.833C34.8139 64.1721 38.1029 63.2293 41.4747 63.0816ZM45.2888 95.7204C45.406 96.7246 45.1193 97.7342 44.4917 98.5272C43.864 99.3201 42.9469 99.8314 41.942 99.9486C40.9372 100.066 39.9269 99.7792 39.1335 99.1519C38.34 98.5247 37.8284 97.6081 37.7112 96.6039C37.6854 96.31 37.6854 96.0143 37.7112 95.7204V82.7961H45.2888V95.7204ZM61.4291 80.8777C57.8696 82.7729 53.9744 83.9561 49.9617 84.3612V81.8369C51.4733 81.486 52.9587 81.0305 54.4072 80.4738C54.7918 80.2116 55.1089 79.8622 55.3328 79.4543C55.5566 79.0463 55.6809 78.5913 55.6954 78.1262V64.3437C55.64 63.6898 55.3319 63.0832 54.8366 62.6524C51.4936 60.5317 47.7256 59.1702 43.7985 58.6641V43.7709C43.7985 43.155 43.5537 42.5643 43.1179 42.1287C42.6821 41.6932 42.0911 41.4486 41.4747 41.4486C40.8584 41.4486 40.2674 41.6932 39.8316 42.1287C39.3958 42.5643 39.151 43.155 39.151 43.7709V58.5379C35.1913 58.9908 31.4022 60.4032 28.1129 62.6524C27.8371 62.8376 27.6134 63.0902 27.4631 63.3863C27.3128 63.6823 27.2408 64.012 27.2541 64.3437V78.1262C27.2269 78.5989 27.3333 79.0696 27.5611 79.4848C27.7889 79.8999 28.1289 80.2426 28.5423 80.4738C30.0584 81.0474 31.6111 81.5196 33.1899 81.8874V84.4117C29.0173 84.0535 24.961 82.8511 21.2678 80.8777C19.7775 76.8641 13.2103 54.1709 27.633 36.1476H32.6847C33.7327 37.2882 34.9953 38.2114 36.4004 38.8642C37.8054 39.5171 39.3254 39.8869 40.8736 39.9526C42.4217 40.0182 43.9676 39.7784 45.4229 39.2468C46.8783 38.7152 48.2146 37.9022 49.3554 36.8544C49.6036 36.6316 49.8397 36.3956 50.0627 36.1476H54.9629C69.4866 54.1709 62.8941 76.8641 61.4291 80.8777ZM74.5636 28.7262C74.5401 29.0532 74.3996 29.3608 74.1676 29.5926C73.9356 29.8244 73.6279 29.9649 73.3007 29.9884H64.2076V27.4641H73.3007C73.6279 27.4875 73.9356 27.628 74.1676 27.8598C74.3996 28.0916 74.5401 28.3992 74.5636 28.7262Z" fill="#FEE856"/>
<path d="M57.5898 61.3904C57.582 61.9954 57.7919 62.5831 58.1813 63.0464C58.5708 63.5098 59.1138 63.8179 59.7115 63.9146H59.9388C60.4585 63.8012 60.9346 63.5412 61.3107 63.1653C61.6868 62.7894 61.9471 62.3136 62.0605 61.7943C62.1292 57.169 61.3325 52.5717 59.7115 48.2389C59.4926 47.7243 59.0876 47.3111 58.5772 47.0818C58.0668 46.8525 57.4887 46.824 56.9583 47.002C56.3988 47.1825 55.9311 47.5725 55.6532 48.0902C55.3753 48.608 55.309 49.2131 55.468 49.7787C56.9004 53.4813 57.6203 57.4208 57.5898 61.3904Z" fill="#FEE856"/>
</svg>
