<svg width="73" height="99" viewBox="0 0 73 99" fill="none" xmlns="http://www.w3.org/2000/svg">
<path d="M57.4136 92.308H21.5207C21.2315 92.3482 20.9371 92.2928 20.6823 92.1502C20.4274 92.0077 20.2261 91.7858 20.109 91.5183L7.45074 78.8362C7.06344 78.4522 6.78301 77.9739 6.63717 77.4483V72.4233C6.61132 71.8974 6.70072 71.3722 6.89912 70.8845C7.09752 70.3968 7.40012 69.9583 7.78574 69.5998C8.1296 69.1423 8.59301 68.7885 9.12495 68.5775C9.65689 68.3664 10.2368 68.3061 10.8007 68.4033H20.0372C20.9953 68.4996 21.887 68.9367 22.5501 69.6349C23.2132 70.3331 23.6036 71.2462 23.6504 72.208C23.6504 73.213 23.459 76.0366 23.459 78.0466H54.3986V73.0216C54.4923 71.7834 55.0266 70.6199 55.9046 69.7419C56.7826 68.8639 57.9462 68.3296 59.1843 68.2358H68.0379C68.8275 68.4512 72.0579 69.839 72.0579 72.854V77.0894C72.0705 77.4039 72.0023 77.7163 71.8599 77.997C71.7175 78.2776 71.5056 78.5171 71.2443 78.6926L58.5861 91.3508C58.5195 91.6152 58.3695 91.8511 58.1583 92.0235C57.9471 92.1959 57.686 92.2957 57.4136 92.308ZM22.43 88.0966H56.4086L67.8465 76.6348V73.213L66.8415 72.4233H59.2082C59.1044 72.4232 59.0044 72.4627 58.9287 72.5339C58.8531 72.6051 58.8076 72.7025 58.8015 72.8062V79.9848C58.7952 80.5667 58.5613 81.123 58.1498 81.5345C57.7383 81.946 57.182 82.18 56.6 82.1862H21.425L20.0132 81.7794C19.5529 81.367 19.2699 80.7925 19.2236 80.1762C19.2236 80.1762 19.415 74.7444 19.415 72.7344H10.7768V76.563L22.43 88.0966Z" fill="#FEE856"/>
<path d="M17.2136 98.5538H13.5764C12.1607 98.4838 10.822 97.8883 9.82196 96.8838C8.82189 95.8793 8.23236 94.538 8.16858 93.122V79.052C8.16858 78.4682 8.40052 77.9082 8.81336 77.4954C9.22621 77.0825 9.78615 76.8506 10.37 76.8506C10.9539 76.8506 11.5138 77.0825 11.9267 77.4954C12.3395 77.9082 12.5714 78.4682 12.5714 79.052V93.122C12.5992 93.434 12.7373 93.726 12.961 93.9453C13.1847 94.1646 13.4793 94.2969 13.7918 94.3184H17.3572C17.6671 94.2962 17.9587 94.163 18.1784 93.9433C18.3982 93.7236 18.5314 93.432 18.5536 93.122V89.102C18.5536 88.5118 18.788 87.9458 19.2054 87.5285C19.6227 87.1111 20.1887 86.8767 20.7789 86.8767C21.3404 86.9518 21.861 87.2111 22.2593 87.6137C22.6577 88.0164 22.9113 88.5398 22.9804 89.102V93.122C22.7358 94.5292 22.0416 95.8193 21.0018 96.7986C19.9621 97.7779 18.6329 98.3938 17.2136 98.5538Z" fill="#FEE856"/>
<path d="M65.2143 98.5535H61.8164C61.1094 98.5567 60.4087 98.4205 59.7543 98.1529C59.0998 97.8852 58.5046 97.4913 58.0024 96.9936C57.5002 96.4958 57.101 95.9041 56.8275 95.2521C56.5541 94.6001 56.4117 93.9006 56.4086 93.1935V89.1018C56.4086 88.5179 56.6405 87.958 57.0534 87.5451C57.4662 87.1323 58.0261 86.9003 58.61 86.9003C59.1939 86.9003 59.7538 87.1323 60.1666 87.5451C60.5795 87.958 60.8114 88.5179 60.8114 89.1018V93.1218C60.8392 93.4338 60.9773 93.7257 61.201 93.945C61.4247 94.1643 61.7193 94.2966 62.0318 94.3182H65.4536C65.7635 94.296 66.0551 94.1628 66.2748 93.943C66.4946 93.7233 66.6278 93.4317 66.65 93.1218V79.0518C66.6002 78.4702 66.781 77.8924 67.1532 77.4429C67.5254 76.9933 68.0593 76.708 68.6399 76.6484C69.2205 76.5887 69.8013 76.7596 70.2571 77.1241C70.7129 77.4886 71.0073 78.0176 71.0768 78.5971C71.1005 78.7477 71.1005 78.9011 71.0768 79.0518V93.1218C70.9212 94.5828 70.2417 95.9381 69.1639 96.9367C68.0861 97.9354 66.683 98.5097 65.2143 98.5535Z" fill="#FEE856"/>
<path d="M45.7364 82.2581C45.1544 82.2519 44.5981 82.018 44.1866 81.6065C43.7751 81.195 43.5412 80.6386 43.5349 80.0567V76.2281C43.5349 75.8931 43.5349 75.5581 43.3435 75.2231H35.3035C35.0881 75.4385 35.0881 75.6299 35.0881 76.0367V79.8413C35.1379 80.4229 34.9572 81.0007 34.585 81.4502C34.2128 81.8998 33.6788 82.1851 33.0982 82.2447C32.5177 82.3044 31.9369 82.1335 31.481 81.769C31.0252 81.4045 30.7309 80.8755 30.6614 80.296C30.6376 80.1454 30.6376 79.992 30.6614 79.8413V76.2281C30.6291 75.5995 30.7213 74.9706 30.9324 74.3777C31.1436 73.7847 31.4697 73.2391 31.892 72.7724C32.3143 72.3056 32.8246 71.9267 33.3936 71.6574C33.9626 71.3882 34.5791 71.2338 35.2078 71.2031H43.6785C44.8846 71.2938 46.0115 71.8378 46.8328 72.7257C47.6541 73.6135 48.1087 74.7794 48.1053 75.9888V80.0088C48.0342 80.601 47.7586 81.1497 47.3261 81.5604C46.8937 81.971 46.3314 82.2178 45.7364 82.2581Z" fill="#FEE856"/>
<path d="M44.3486 75.6302C43.7625 75.6302 43.2001 75.399 42.7834 74.9869C42.3668 74.5747 42.1295 74.0148 42.1232 73.4287V58.3537L40.7114 57.947L39.7064 56.942L38.9168 57.5402C38.6092 57.8573 38.1968 58.0516 37.7564 58.0868C37.3161 58.122 36.878 57.9958 36.5239 57.7316V73.2134C36.5591 73.5067 36.5355 73.8041 36.4546 74.0882C36.3736 74.3723 36.2369 74.6375 36.0524 74.8682C35.8679 75.0989 35.6393 75.2906 35.3799 75.432C35.1206 75.5735 34.8356 75.6619 34.5418 75.6921C34.2479 75.7222 33.9509 75.6936 33.6683 75.6078C33.3856 75.522 33.1228 75.3808 32.8952 75.1924C32.6677 75.004 32.4799 74.7722 32.3429 74.5105C32.2059 74.2488 32.1223 73.9624 32.0972 73.668C32.0734 73.5174 32.0734 73.364 32.0972 73.2134V53.927C32.0987 53.5926 32.1936 53.2654 32.3712 52.9821C32.5488 52.6989 32.8019 52.4708 33.1022 52.3237C33.4659 52.1137 33.8786 52.0032 34.2986 52.0032C34.7186 52.0032 35.1313 52.1137 35.495 52.3237L37.0982 53.3287L38.3186 52.5152C38.666 52.19 39.1143 51.9936 39.5889 51.9588C40.0635 51.924 40.5356 52.0528 40.9268 52.3237L41.9318 53.3287L42.9368 52.5152C43.2485 52.2147 43.6436 52.0151 44.0705 51.9426C44.4973 51.87 44.9361 51.9278 45.3296 52.1084C45.668 52.3312 45.9515 52.6278 46.1587 52.976C46.366 53.3241 46.4916 53.7147 46.5261 54.1184V73.4287C46.5199 74.0107 46.2859 74.567 45.8744 74.9785C45.4629 75.39 44.9066 75.6239 44.3247 75.6302H44.3486Z" fill="#FEE856"/>
<path d="M27.2636 32.2237L25.0382 31.8169C23.9546 31.2613 23.1058 30.336 22.6454 29.2087L21.8557 27.3901H21.6404C20.3966 27.8307 19.029 27.7619 17.8357 27.1987C17.2578 26.9794 16.7398 26.6267 16.3239 26.1693C15.9081 25.7119 15.6062 25.1627 15.4429 24.5665L11.1836 13.1287C10.9448 12.5474 10.8228 11.9247 10.8246 11.2962C10.8264 10.6677 10.952 10.0458 11.1942 9.46582C11.4364 8.88588 11.7905 8.35933 12.2362 7.91623C12.6819 7.47312 13.2105 7.12214 13.7918 6.88333L30.8768 0.661902C32.0469 0.255277 33.3199 0.255277 34.49 0.661902C35.0596 0.888291 35.5706 1.24046 35.985 1.6921C36.3993 2.14375 36.7063 2.68319 36.8829 3.27012L41.5011 14.9233C41.8911 16.129 41.8179 17.4368 41.2958 18.5915C40.7738 19.7462 39.8403 20.665 38.6775 21.1687H38.2947L39.0843 22.7719C39.3301 23.9729 39.2642 25.2168 38.8929 26.3851C38.6665 26.9547 38.3143 27.4657 37.8627 27.8801C37.411 28.2944 36.8716 28.6014 36.2847 28.778L29.3214 31.4101L27.2636 32.2237ZM23.435 22.3651H24.2486C24.532 22.4489 24.79 22.6022 24.999 22.8112C25.2079 23.0202 25.3613 23.2781 25.445 23.5615L26.9286 27.1987C26.9286 27.3901 27.3354 27.5815 27.3354 27.3901L34.5139 24.9973V24.2076L33.1022 20.5705C32.9101 20.0362 32.9294 19.4487 33.1563 18.9283C33.3831 18.4078 33.8004 17.9937 34.3225 17.7708L36.9307 16.7658C37.1222 16.7658 37.1222 16.5505 37.1222 16.359L32.9107 4.89726C32.6954 4.70583 32.5039 4.49047 32.0972 4.70583L15.3472 10.9273C15.1557 10.9273 14.9404 11.334 15.1557 11.5255V11.7408L19.415 23.1787H19.75L22.3582 22.1737L23.435 22.3651Z" fill="#FEE856"/>
<path d="M6.35005 25.978C5.0369 26.0143 3.75472 25.5756 2.73906 24.7425C1.72339 23.9094 1.04244 22.7377 0.821288 21.4428C0.600135 20.1479 0.853634 18.8167 1.53522 17.6937C2.2168 16.5707 3.2807 15.7313 4.53148 15.3298L13.1936 11.908C13.7238 11.8157 14.2696 11.9049 14.7428 12.1611C15.2161 12.4172 15.5892 12.8254 15.8018 13.3198L18.1947 19.5412C18.2888 19.7646 18.3373 20.0046 18.3373 20.2471C18.3373 20.4895 18.2888 20.7295 18.1947 20.953C18.0994 21.2368 17.9396 21.4947 17.7278 21.7065C17.5161 21.9182 17.2582 22.078 16.9743 22.1733L8.33612 25.7865L6.35005 25.978ZM5.94327 19.5412C5.6758 19.6583 5.45392 19.8596 5.31138 20.1145C5.16884 20.3693 5.11345 20.6638 5.15362 20.953C5.29497 21.2454 5.52835 21.4833 5.81796 21.6303C6.10757 21.7772 6.4374 21.8251 6.75684 21.7665L13.1936 19.1583L12.3801 16.933L5.94327 19.5412Z" fill="#FEE856"/>
<path d="M37.6964 14.5165C37.2805 14.4456 36.8851 14.2846 36.5379 14.0449C36.1907 13.8052 35.9001 13.4925 35.6864 13.1286L33.2936 6.88329C33.1876 6.62932 33.1331 6.35686 33.1331 6.08168C33.1331 5.80649 33.1876 5.53404 33.2936 5.28007C33.3773 4.99664 33.5307 4.73868 33.7396 4.52971C33.9486 4.32073 34.2066 4.16738 34.49 4.08364L43.1282 1.06864C44.4869 0.571002 45.9869 0.628449 47.3035 1.22855C48.6202 1.82865 49.6475 2.92313 50.1632 4.27507C50.429 4.95109 50.5494 5.67554 50.5164 6.40119C50.4834 7.12684 50.2978 7.83739 49.9718 8.4865C49.2749 9.68715 48.221 10.6407 46.9568 11.2144L38.51 14.3251L37.6964 14.5165ZM38.1032 7.33793L39.1082 9.53936L45.545 7.1465L46.3586 6.33293V5.32793C46.1946 5.12198 45.9706 4.97216 45.7176 4.89927C45.4646 4.82638 45.1952 4.83403 44.9468 4.92114L38.1032 7.33793Z" fill="#FEE856"/>
<path d="M34.49 49.0933H34.1071C33.784 48.9735 33.4906 48.7853 33.2469 48.5416C33.0033 48.298 32.8151 48.0046 32.6953 47.6815L26.2585 30.5965C26.0649 30.0651 26.0808 29.48 26.303 28.96C26.5253 28.44 26.9371 28.0241 27.455 27.7968L34.8967 25.1886C35.4173 24.9744 36.0015 24.9749 36.5216 25.1901C37.0417 25.4054 37.4555 25.8178 37.6725 26.3372L44.1092 43.4222C44.2058 43.7966 44.2194 44.1876 44.1491 44.5679C44.0789 44.9481 43.9264 45.3084 43.7025 45.6236C43.1366 46.1026 42.4322 46.3877 41.6925 46.4372H38.51L36.3085 48.83C35.6864 48.9018 35.0882 49.0933 34.49 49.0933ZM31.0682 31.0033L35.6864 42.6565L36.0932 41.8668C36.6591 41.3879 37.3635 41.1027 38.1032 41.0533H39.1082L34.49 29.4L31.0682 31.0033Z" fill="#FEE856"/>
<path d="M52.3885 43.2787C52.0061 43.2637 51.6308 43.1712 51.2852 43.0066C50.9397 42.8421 50.6312 42.609 50.3785 42.3216C50.0953 41.8143 50.0193 41.2172 50.1665 40.6552C50.3137 40.0932 50.6727 39.6099 51.1682 39.3066L58.61 35.143C59.0588 34.9719 59.556 34.9781 60.0004 35.1603C60.4449 35.3426 60.8033 35.6872 61.0028 36.1241C61.0134 36.2595 61.0134 36.3955 61.0028 36.5309C61.1131 36.9213 61.1157 37.3342 61.0103 37.726C60.905 38.1177 60.6957 38.4737 60.4046 38.7562L53.25 43.0634L52.3885 43.2787Z" fill="#FEE856"/>
<path d="M62.4385 50.3135H53.7764C53.215 50.2383 52.6943 49.9791 52.296 49.5764C51.8976 49.1737 51.6441 48.6503 51.575 48.0881C51.5812 47.5062 51.8151 46.9499 52.2266 46.5384C52.6381 46.1269 53.1945 45.8929 53.7764 45.8867H62.4385C63.0205 45.8929 63.5768 46.1269 63.9883 46.5384C64.3998 46.9499 64.6337 47.5062 64.64 48.0881C64.5395 48.6375 64.2756 49.1437 63.8829 49.5407C63.4901 49.9378 62.9867 50.2071 62.4385 50.3135Z" fill="#FEE856"/>
<path d="M59.4236 61.4644H58.6101L51.1683 57.2529C50.7096 56.9295 50.3791 56.4551 50.2348 55.9127C50.0904 55.3703 50.1413 54.7945 50.3786 54.2858C50.6751 53.8226 51.1342 53.487 51.6656 53.3453C52.1971 53.2036 52.7623 53.266 53.25 53.5201L60.6918 58.1383C61.1692 58.3529 61.5426 58.7473 61.7308 59.2357C61.919 59.7241 61.9068 60.2671 61.6968 60.7465C61.6968 60.9619 61.5054 60.9619 61.5054 61.1533C60.8375 61.3882 60.131 61.4938 59.4236 61.4644Z" fill="#FEE856"/>
</svg>
