<svg width="101" height="90" viewBox="0 0 101 90" fill="none" xmlns="http://www.w3.org/2000/svg">
<path d="M96.7 45.0325C92.5188 43.407 88.496 41.4002 84.6825 39.0375C78.9075 35.105 75.91 36.7275 74.975 37.415C72.6161 38.4884 70.3763 39.8065 68.2925 41.3475C67.9777 41.6374 67.5655 41.7983 67.1375 41.7983C66.7096 41.7983 66.2973 41.6374 65.9825 41.3475C59.74 36.04 58.805 33.0975 58.585 31.64L67.605 26.14C68.1557 25.838 68.5692 25.3359 68.76 24.7375C69.2 23.5825 73.6 12.9675 74.26 10.6575C74.5075 9.12742 74.5075 7.56753 74.26 6.03748C73.9153 4.77107 73.1626 3.65364 72.1186 2.85821C71.0746 2.06279 69.7975 1.63373 68.485 1.63748C67.2697 1.63863 66.076 1.95938 65.0238 2.56756C63.9715 3.17574 63.0977 4.04995 62.49 5.10248L56.99 16.9L48.2175 21.52C47.943 21.6605 47.6993 21.8545 47.501 22.0907C47.3026 22.3268 47.1535 22.6003 47.0625 22.895C46.8999 23.5148 46.9785 24.1733 47.2825 24.7375C47.3666 25.0131 47.5053 25.2689 47.6903 25.4897C47.8754 25.7105 48.1031 25.8918 48.3597 26.0227C48.6164 26.1536 48.8968 26.2314 49.1842 26.2516C49.4716 26.2717 49.7601 26.2338 50.0325 26.14C50.28 26.14 50.28 25.8925 50.5 25.8925L60.2075 20.75L61.3625 19.595L66.67 7.57748C67.1389 6.99859 67.7872 6.59224 68.5125 6.42248C69.4475 6.42248 69.4475 6.88998 69.4475 7.35748C69.6675 8.11176 69.6675 8.91319 69.4475 9.66748C69.2 10.8225 66.89 16.8175 64.8275 22.3725L55.5875 27.8725C55.3319 27.9079 55.0903 28.0106 54.8874 28.1701C54.6844 28.3295 54.5275 28.54 54.4325 28.78C53.7459 30.4825 53.7459 32.3849 54.4325 34.0875C56.3349 38.402 59.2726 42.1803 62.985 45.0875C64.1813 46.0852 65.6898 46.6317 67.2475 46.6317C68.8053 46.6317 70.3137 46.0852 71.51 45.0875L77.285 41.8425H77.7525C79.2501 42.0296 80.6773 42.5873 81.905 43.465C86.0184 45.9452 90.3548 48.0352 94.8575 49.7075C95.0089 49.9409 95.1071 50.2048 95.1451 50.4805C95.1831 50.7561 95.16 51.0368 95.0775 51.3025C94.8575 52.4575 94.39 52.2375 94.17 52.2375C91.9654 51.5197 89.8661 50.5117 87.9275 49.24C80.53 43.9325 77.285 44.84 76.13 45.0875L65.9825 50.395C65.3303 50.7069 64.746 51.1444 64.263 51.6824C63.7799 52.2204 63.4078 52.8483 63.1677 53.5303C62.9276 54.2122 62.8243 54.9348 62.8637 55.6568C62.9032 56.3787 63.0846 57.0857 63.3975 57.7375C65.2675 60.4875 80.5025 69.7275 80.5025 69.7275C81.1067 70.4427 81.438 71.3488 81.4375 72.285C80.249 72.4001 79.0529 72.1609 78 71.5975L55.12 56.115C50.9469 52.1753 47.9807 47.1297 46.5675 41.5675C46.4587 40.4995 46.1136 39.4691 45.557 38.5511C45.0005 37.633 44.2466 36.8504 43.35 36.26C42.6685 35.7341 41.873 35.3755 41.0276 35.2131C40.1821 35.0507 39.3104 35.089 38.4825 35.325C35.2581 35.7984 32.3211 37.4431 30.2325 39.945C30.0823 40.0972 29.9637 40.2776 29.8835 40.4758C29.8032 40.674 29.763 40.8862 29.765 41.1C29.4968 44.2113 29.8139 47.3454 30.7 50.34C30.9707 51.1664 31.119 52.0281 31.14 52.8975V54.74H30.2325C29.0832 53.2115 28.4739 51.3447 28.5 49.4325L27.345 39.505C27.4548 38.5066 27.9477 37.5897 28.72 36.9475C32.392 35.3845 35.9405 33.5459 39.335 31.4475L52.6725 24.9025C52.9983 24.8062 53.2947 24.63 53.5349 24.3898C53.7751 24.1497 53.9513 23.8532 54.0475 23.5275C54.213 22.9078 54.1343 22.2483 53.8275 21.685C53.7435 21.4094 53.6048 21.1536 53.4197 20.9328C53.2346 20.712 53.007 20.5307 52.7503 20.3998C52.4937 20.2689 52.2133 20.1911 51.9259 20.1709C51.6385 20.1507 51.3499 20.1887 51.0775 20.2825C50.83 20.2825 50.83 20.53 50.61 20.53L36.6125 27.735L26.905 32.355C25.6409 33.0783 24.5908 34.1234 23.8615 35.3841C23.1321 36.6448 22.7495 38.076 22.7525 39.5325L23.9075 49.68C24.0995 53.0326 25.5888 56.1788 28.06 58.4525C28.5008 58.811 29.0151 59.0683 29.5663 59.2061C30.1175 59.3439 30.6923 59.3589 31.25 59.25C32.0795 59.1384 32.8769 58.856 33.5916 58.4205C34.3064 57.985 34.923 57.406 35.4025 56.72C35.7525 56.2222 35.9777 55.6476 36.0591 55.0445C36.1404 54.4415 36.0756 53.8277 35.87 53.255C35.8246 51.8515 35.6682 50.4538 35.4025 49.075C34.8585 46.8023 34.5453 44.4805 34.4675 42.145C35.9719 41.0191 37.6813 40.1971 39.5 39.725H40.655C41.5625 40.1925 41.81 41.5675 42.03 42.035C43.4521 48.6535 46.8918 54.668 51.875 59.25L75.4425 75.42C77.1105 76.4105 79.0034 76.9594 80.9425 77.015H82.785C83.4334 76.8909 84.0343 76.5884 84.5201 76.1414C85.006 75.6945 85.3575 75.1208 85.535 74.485C86.1793 73.1165 86.3694 71.5779 86.0775 70.0937C85.7856 68.6096 85.0271 67.2576 83.9125 66.235C78.489 62.9615 73.2386 59.4092 68.1825 55.5925L68.65 55.125L77.89 50.285C80.5545 50.8361 83.0457 52.0251 85.15 53.75C87.7709 55.6531 90.758 56.9921 93.9225 57.6825C95.4056 57.5975 96.8141 57.0043 97.911 56.0025C99.0079 55.0008 99.7262 53.6518 99.945 52.1825C100.207 51.509 100.334 50.7904 100.318 50.0679C100.303 49.3453 100.145 48.633 99.8537 47.9715C99.5625 47.31 99.1438 46.7124 98.6216 46.2128C98.0993 45.7133 97.4838 45.3215 96.81 45.06L96.7 45.0325Z" fill="#FEE856"/>
<path d="M39.17 21.2451C41.226 21.2451 43.2357 20.6354 44.9452 19.4932C46.6546 18.351 47.987 16.7275 48.7738 14.8281C49.5605 12.9286 49.7664 10.8386 49.3653 8.82212C48.9642 6.80569 47.9742 4.95348 46.5204 3.49971C45.0666 2.04594 43.2144 1.05591 41.198 0.654819C39.1816 0.253725 37.0915 0.459585 35.192 1.24636C33.2926 2.03313 31.6691 3.36548 30.5269 5.07493C29.3847 6.78438 28.775 8.79415 28.775 10.8501V11.0701C28.8533 13.7819 29.9804 16.3577 31.9191 18.2554C33.8579 20.1531 36.4571 21.2249 39.17 21.2451ZM39.17 5.54258C40.2578 5.54258 41.3212 5.86515 42.2257 6.4695C43.1301 7.07385 43.8351 7.93283 44.2514 8.93783C44.6677 9.94282 44.7766 11.0487 44.5644 12.1156C44.3521 13.1825 43.8283 14.1625 43.0591 14.9317C42.2899 15.7009 41.3099 16.2247 40.243 16.4369C39.1761 16.6491 38.0703 16.5402 37.0653 16.1239C36.0603 15.7076 35.2013 15.0027 34.5969 14.0982C33.9926 13.1938 33.67 12.1304 33.67 11.0426C33.67 9.58389 34.2495 8.18495 35.2809 7.1535C36.3124 6.12205 37.7113 5.54258 39.17 5.54258Z" fill="#FEE856"/>
<path d="M13.0725 70.9101L46.3475 73.6601C46.9684 73.6181 47.5566 73.3668 48.0162 72.9472C48.4757 72.5276 48.7794 71.9646 48.8775 71.3501C48.8395 70.6696 48.5665 70.0235 48.1051 69.5219C47.6436 69.0204 47.0224 68.6946 46.3475 68.6001L13.3475 65.8501L11.725 66.3176C11.2089 66.8391 10.8145 67.4683 10.57 68.1601C10.6583 68.7956 10.9822 69.3747 11.4775 69.7826C11.6023 70.107 11.8204 70.3873 12.1042 70.5879C12.3881 70.7886 12.725 70.9007 13.0725 70.9101Z" fill="#FEE856"/>
<path d="M36.75 84.3025L3.47497 81.5525L1.87997 82.02C1.60685 82.2732 1.38801 82.5793 1.23674 82.9197C1.08547 83.26 1.00492 83.6276 0.999969 84C0.914916 84.2868 0.913739 84.5921 0.99658 84.8796C1.07942 85.1671 1.24282 85.4249 1.46747 85.6225C1.65515 85.8855 1.89714 86.1051 2.17707 86.2664C2.457 86.4277 2.76833 86.527 3.08997 86.5575L36.3374 89.3075C36.9196 89.3674 37.5032 89.2094 37.9756 88.864C38.448 88.5186 38.7755 88.0104 38.8949 87.4375V87.2175C38.99 86.5871 38.8325 85.9447 38.4566 85.4297C38.0807 84.9148 37.5168 84.569 36.8875 84.4675L36.75 84.3025Z" fill="#FEE856"/>
<path d="M73.82 79.215L20.25 74.5951C19.9258 74.4895 19.5785 74.4774 19.2478 74.5601C18.9171 74.6427 18.6163 74.8169 18.38 75.0626C18.0069 75.3623 17.7288 75.7638 17.5793 76.2184C17.4297 76.673 17.4152 77.1612 17.5374 77.6239C17.6596 78.0866 17.9134 78.5039 18.2679 78.8254C18.6224 79.1468 19.0626 79.3586 19.535 79.435L73.38 84C74.0009 83.958 74.5891 83.7067 75.0487 83.2871C75.5082 82.8676 75.8119 82.3045 75.91 81.69C75.9907 81.3828 75.9962 81.0607 75.9262 80.7508C75.8562 80.441 75.7126 80.1525 75.5077 79.9098C75.3027 79.6672 75.0424 79.4773 74.7487 79.3564C74.4549 79.2355 74.1364 79.187 73.82 79.215Z" fill="#FEE856"/>
</svg>
