<svg width="101" height="99" viewBox="0 0 101 99" fill="none" xmlns="http://www.w3.org/2000/svg">
<path d="M12.2906 49.8907H7.25881C5.66913 49.9851 4.10683 49.4457 2.91398 48.3907C1.72113 47.3356 0.994941 45.8509 0.894409 44.2616V33.279C0.918166 31.5984 1.59633 29.9934 2.78478 28.8049C3.97322 27.6165 5.57827 26.9383 7.25881 26.9146H12.2906C13.9427 26.9738 15.508 27.6689 16.6597 28.8549C17.8114 30.0408 18.4604 31.6259 18.4712 33.279V43.7102C18.4957 44.4978 18.3648 45.2825 18.0858 46.0194C17.8069 46.7564 17.3855 47.4312 16.8456 48.0052C16.3057 48.5792 15.6581 49.0411 14.9396 49.3647C14.2211 49.6882 13.4458 49.867 12.6582 49.8907H12.2906ZM7.25881 31.1192C7.00225 31.073 6.73907 31.0779 6.48444 31.1339C6.22981 31.1898 5.98876 31.2956 5.77519 31.4451C5.56161 31.5946 5.37973 31.7848 5.24003 32.005C5.10033 32.2251 5.00556 32.4706 4.9612 32.7275C4.95045 32.7729 4.95045 32.8201 4.9612 32.8654V43.6642C4.96717 44.223 5.19179 44.7572 5.58692 45.1523C5.98205 45.5474 6.51624 45.772 7.07501 45.778H12.2906C12.8494 45.772 13.3836 45.5474 13.7787 45.1523C14.1738 44.7572 14.3984 44.223 14.4044 43.6642V33.279C14.4649 32.7484 14.3201 32.2147 13.9997 31.7875C13.6793 31.3602 13.2075 31.0718 12.6812 30.9813H7.25881V31.1192Z" fill="#FEE856"/>
<path d="M33.5206 98.1406H27.34C25.5355 98.141 23.8029 97.4337 22.5141 96.1707C21.2253 94.9077 20.4832 93.1897 20.4471 91.3856V83.6656C20.5135 83.1258 20.757 82.6232 21.1395 82.2366C21.522 81.8499 22.0219 81.601 22.561 81.5288C23.1237 81.5349 23.6613 81.7627 24.0571 82.1627C24.4528 82.5628 24.6748 83.1028 24.6748 83.6656V91.3856C24.7647 92.0533 25.0846 92.6687 25.5795 93.1259C26.0744 93.583 26.7132 93.8533 27.386 93.89H33.5666C34.2271 93.8782 34.8572 93.6106 35.3244 93.1434C35.7915 92.6763 36.0592 92.0461 36.071 91.3856V83.6656C36.0232 83.1072 36.1967 82.5524 36.5541 82.1208C36.9115 81.6891 37.4242 81.4151 37.9817 81.3579C38.5391 81.3006 39.0968 81.4647 39.5345 81.8147C39.9722 82.1647 40.2548 82.6726 40.3216 83.2291C40.3444 83.3737 40.3444 83.521 40.3216 83.6656V91.3856C40.2859 93.1739 39.5566 94.8783 38.2875 96.1388C37.0184 97.3993 35.3091 98.1171 33.5206 98.1406Z" fill="#FEE856"/>
<path d="M36.2088 74.7737H25.41C24.9574 74.7767 24.5086 74.6906 24.0893 74.5202C23.67 74.3498 23.2884 74.0984 22.9662 73.7805C22.6441 73.4626 22.3877 73.0844 22.2117 72.6674C22.0357 72.2504 21.9436 71.8028 21.9406 71.3503V62.6193C21.9375 62.1667 22.0237 61.718 22.1941 61.2987C22.3645 60.8794 22.6158 60.4977 22.9337 60.1756C23.2516 59.8534 23.6299 59.597 24.0469 59.421C24.4639 59.245 24.9114 59.1529 25.364 59.1499H36.2088C37.1271 59.1498 38.0085 59.5115 38.6622 60.1565C39.3158 60.8015 39.6891 61.6781 39.7012 62.5963V71.2813C39.7012 72.2036 39.3364 73.0884 38.6864 73.7427C38.0364 74.397 37.154 74.7676 36.2318 74.7737H36.2088ZM26.1912 70.7299H35.6344V63.4005H26.1912V70.7299Z" fill="#FEE856"/>
<path d="M44.5262 85.7794C43.9634 85.7794 43.4234 85.5575 43.0233 85.1617C42.6233 84.7659 42.3955 84.2283 42.3894 83.6656V61.6544C42.3955 61.0917 42.6233 60.5541 43.0233 60.1583C43.4234 59.7625 43.9634 59.5406 44.5262 59.5406H50.6838C50.9655 59.5068 51.251 59.5295 51.5238 59.6072C51.7966 59.6849 52.0512 59.8162 52.2727 59.9934C52.4943 60.1705 52.6783 60.39 52.8142 60.6391C52.95 60.8881 53.0349 61.1617 53.0638 61.4439C53.0928 61.7261 53.0653 62.0112 52.983 62.2826C52.9006 62.5541 52.765 62.8064 52.5841 63.0249C52.4032 63.2434 52.1806 63.4237 51.9293 63.5552C51.678 63.6868 51.403 63.767 51.1204 63.7912H46.5251V83.9643C46.4518 84.4507 46.2128 84.8969 45.8487 85.2276C45.4845 85.5583 45.0174 85.7532 44.5262 85.7794Z" fill="#FEE856"/>
<path d="M84.4588 85.7796H16.5412C15.9784 85.7796 15.4384 85.5577 15.0383 85.1619C14.6383 84.7661 14.4105 84.2285 14.4044 83.6658V2.78959C14.4105 2.22687 14.6383 1.68926 15.0383 1.29349C15.4384 0.897719 15.9784 0.675749 16.5412 0.675781H84.4588C85.0216 0.675749 85.5616 0.897719 85.9617 1.29349C86.3618 1.68926 86.5896 2.22687 86.5956 2.78959V83.6658C86.5896 84.2285 86.3618 84.7661 85.9617 85.1619C85.5616 85.5577 85.0216 85.7796 84.4588 85.7796ZM50.6838 81.6669H82.345V4.92638H18.655V81.6669H50.6838Z" fill="#FEE856"/>
<path d="M93.7412 49.8908H88.7094C87.9068 49.8999 87.1103 49.7508 86.3653 49.452C85.6203 49.1533 84.9414 48.7107 84.3675 48.1495C83.7936 47.5884 83.3358 46.9197 83.0203 46.1817C82.7048 45.4436 82.5378 44.6506 82.5288 43.848V43.7102V33.279C82.5167 32.4552 82.6669 31.6372 82.9709 30.8715C83.275 30.1058 83.7269 29.4075 84.3008 28.8165C84.8747 28.2255 85.5595 27.7534 86.3159 27.427C87.0724 27.1007 87.8857 26.9265 88.7094 26.9146H93.7412C95.4218 26.9383 97.0268 27.6165 98.2152 28.8049C99.4037 29.9934 100.082 31.5984 100.106 33.279V43.7102C100.124 45.3155 99.5105 46.8637 98.397 48.0202C97.2835 49.1767 95.7596 49.8486 94.1548 49.8908H93.8331H93.7412ZM88.7094 31.1192C88.1507 31.1252 87.6165 31.3498 87.2213 31.7449C86.8262 32.1401 86.6016 32.6742 86.5956 33.233V43.6642C86.6016 44.223 86.8262 44.7572 87.2213 45.1523C87.6165 45.5474 88.1507 45.772 88.7094 45.778H93.7412C94.2718 45.8386 94.8055 45.6938 95.2327 45.3733C95.6599 45.0529 95.9484 44.5811 96.0388 44.0548V33.4168C96.0883 33.16 96.0856 32.8958 96.0311 32.6399C95.9765 32.3841 95.871 32.1419 95.721 31.9276C95.571 31.7133 95.3795 31.5313 95.1578 31.3924C94.9361 31.2536 94.6888 31.1606 94.4305 31.1192H88.7094Z" fill="#FEE856"/>
<path d="M73.66 98.1406H67.4794C66.5954 98.1436 65.7194 97.9725 64.9014 97.637C64.0835 97.3014 63.3397 96.8081 62.7124 96.1851C62.0852 95.5621 61.5868 94.8217 61.2457 94.0061C60.9046 93.1904 60.7274 92.3156 60.7244 91.4316V83.6656C60.6907 83.384 60.7133 83.0984 60.791 82.8256C60.8688 82.5528 61.0001 82.2982 61.1772 82.0767C61.3544 81.8551 61.5739 81.6711 61.8229 81.5353C62.0719 81.3995 62.3455 81.3146 62.6277 81.2856C62.9099 81.2566 63.195 81.2841 63.4665 81.3665C63.7379 81.4488 63.9902 81.5844 64.2087 81.7653C64.4272 81.9462 64.6075 82.1688 64.7391 82.4201C64.8706 82.6714 64.9508 82.9464 64.975 83.2291C64.9978 83.3737 64.9978 83.521 64.975 83.6656V91.3856C64.9868 92.0461 65.2545 92.6763 65.7216 93.1434C66.1887 93.6106 66.8189 93.8782 67.4794 93.89H73.66C74.3431 93.8867 75.0002 93.6278 75.502 93.1643C76.0037 92.7008 76.3138 92.0663 76.3712 91.3856V83.6656C76.3712 83.1029 76.5932 82.5628 76.9889 82.1627C77.3847 81.7627 77.9223 81.5349 78.485 81.5288C79.0241 81.601 79.524 81.8499 79.9065 82.2366C80.289 82.6232 80.5325 83.1258 80.5988 83.6656V91.3856C80.5626 93.1977 79.8142 94.9226 78.5155 96.1869C77.2168 97.4512 75.4724 98.1531 73.66 98.1406Z" fill="#FEE856"/>
<path d="M75.59 74.7738H64.7912C63.8729 74.7739 62.9915 74.4122 62.3378 73.7672C61.6842 73.1221 61.3109 72.2456 61.2988 71.3274V62.6194C61.3048 61.7011 61.6723 60.8221 62.3216 60.1728C62.971 59.5235 63.8499 59.156 64.7682 59.15H75.59C76.0426 59.147 76.4914 59.2331 76.9107 59.4035C77.33 59.5739 77.7116 59.8252 78.0338 60.1431C78.3559 60.461 78.6123 60.8393 78.7883 61.2563C78.9643 61.6733 79.0564 62.1208 79.0594 62.5734V71.3044C79.0625 71.757 78.9763 72.2057 78.8059 72.625C78.6355 73.0443 78.3842 73.426 78.0663 73.7481C77.7484 74.0703 77.3701 74.3267 76.9531 74.5027C76.5361 74.6786 76.0886 74.7708 75.636 74.7738H75.59ZM65.3656 70.73H74.8088V63.4006H65.3656V70.73Z" fill="#FEE856"/>
<path d="M84.4588 45.824C84.0154 45.8295 83.58 45.7066 83.2049 45.4702C82.8298 45.2337 82.5312 44.8938 82.345 44.4914L74.4412 20.5502L72.3044 18.4364H28.6496L26.5129 20.5502L18.4712 44.4914C18.2253 44.97 17.8193 45.3472 17.3238 45.5572C16.8283 45.7671 16.2749 45.7965 15.76 45.6402C15.5411 45.5816 15.336 45.4803 15.1563 45.3423C14.9765 45.2043 14.8258 45.0322 14.7127 44.8358C14.5996 44.6395 14.5263 44.4228 14.4971 44.1981C14.4678 43.9734 14.4832 43.7451 14.5423 43.5264V43.3426V43.1588L22.9286 19.0108C22.9269 18.8321 22.9605 18.6549 23.0275 18.4893C23.0946 18.3237 23.1937 18.1729 23.3192 18.0458L26.2142 15.1508C26.6063 14.7002 27.1584 14.42 27.7536 14.3696H72.695C72.9969 14.3575 73.297 14.4229 73.5664 14.5597C73.8359 14.6964 74.0659 14.8999 74.2344 15.1508L77.1294 18.0458C77.2549 18.1729 77.354 18.3237 77.421 18.4893C77.4881 18.6549 77.5217 18.8321 77.52 19.0108L85.8144 43.1358C86.0021 43.5851 86.0193 44.0875 85.8627 44.5487C85.7062 45.0098 85.3867 45.3979 84.9643 45.6402H84.7805L84.4588 45.824Z" fill="#FEE856"/>
<path d="M76.9456 48.351H24.1004C23.7794 48.3495 23.4652 48.2584 23.1932 48.0878C22.9212 47.9173 22.7022 47.6743 22.561 47.386C22.3569 47.1133 22.216 46.7987 22.1484 46.4649C22.0809 46.1312 22.0884 45.7865 22.1704 45.456L29.316 23.261C29.4413 22.8635 29.6933 22.518 30.0335 22.2773C30.3738 22.0367 30.7835 21.9141 31.2 21.9284H69.8C70.2142 21.9588 70.6124 22.1009 70.9522 22.3396C71.2921 22.5783 71.5609 22.9047 71.73 23.284L79.0594 45.6628C79.1267 46.3308 78.9905 47.0035 78.6688 47.5928C78.198 48.035 77.5898 48.3026 76.9456 48.351ZM50.6838 44.2842H74.0506L68.0538 26.156H32.7394L26.7656 44.2842H50.6838Z" fill="#FEE856"/>
<path d="M56.4738 85.7793C55.915 85.7734 55.3809 85.5487 54.9857 85.1536C54.5906 84.7585 54.366 84.2243 54.36 83.6655V63.7911H50.3162C49.7578 63.8389 49.203 63.6654 48.7713 63.308C48.3397 62.9506 48.0657 62.4379 48.0084 61.8804C47.9512 61.3229 48.1152 60.7653 48.4652 60.3276C48.8153 59.8899 49.3232 59.6073 49.8796 59.5405H56.4738C57.0366 59.5405 57.5766 59.7625 57.9767 60.1582C58.3767 60.554 58.6045 61.0916 58.6106 61.6543V83.6655C58.6045 84.2282 58.3767 84.7659 57.9767 85.1616C57.5766 85.5574 57.0366 85.7794 56.4738 85.7793Z" fill="#FEE856"/>
<path d="M56.4738 74.774H44.5262C43.9655 74.774 43.4279 74.5513 43.0315 74.1549C42.6351 73.7585 42.4124 73.2208 42.4124 72.6602C42.4124 72.0996 42.6351 71.5619 43.0315 71.1655C43.4279 70.7691 43.9655 70.5464 44.5262 70.5464H56.4738C57.0344 70.5464 57.572 70.7691 57.9685 71.1655C58.3649 71.5619 58.5876 72.0996 58.5876 72.6602C58.5876 73.2208 58.3649 73.7585 57.9685 74.1549C57.572 74.5513 57.0344 74.774 56.4738 74.774Z" fill="#FEE856"/>
</svg>
