<svg width="82" height="133" viewBox="0 0 82 133" fill="none" xmlns="http://www.w3.org/2000/svg">
<path d="M25.375 28.35L24.9399 27.275C23.7328 24.7187 23.0786 21.9365 23.0203 19.1101C23.0203 14.209 24.9672 9.50859 28.4329 6.04297C31.8985 2.57734 36.5989 0.630371 41.5 0.630371C46.4012 0.630371 51.1016 2.57734 54.5672 6.04297C58.0328 9.50859 59.9798 14.209 59.9798 19.1101C59.9514 21.9181 59.3687 24.6929 58.2649 27.275L57.8298 28.1453L45.0322 49.85C44.6962 50.5831 44.1487 51.1991 43.46 51.6187C42.7713 52.0383 41.9729 52.2424 41.1673 52.2048C40.3927 52.2183 39.6315 52.0018 38.98 51.5827C38.3285 51.1635 37.8159 50.5605 37.5072 49.85L25.4518 28.5548L25.375 28.35ZM29.2399 25.5601L41.2953 47.2649L53.5298 25.5601C54.4188 23.9325 54.9737 22.1436 55.1619 20.2986C55.3501 18.4535 55.1678 16.5895 54.6257 14.8159C54.0836 13.0422 53.1926 11.3948 52.0051 9.97021C50.8176 8.54564 49.3574 7.37267 47.7103 6.52016C46.0633 5.66764 44.2625 5.15276 42.4137 5.00574C40.5649 4.85872 38.7054 5.08252 36.9443 5.66401C35.1832 6.24551 33.556 7.17297 32.1583 8.39195C30.7605 9.61093 29.6204 11.0969 28.8048 12.7625C27.781 14.6819 27.2696 16.833 27.3203 19.0077C27.3536 19.95 27.4909 20.8856 27.7298 21.7976C27.8605 23.171 28.3849 24.4775 29.2399 25.5601Z" fill="#FEE856"/>
<path d="M12.0399 132.369H10.325C7.99183 132.295 5.78142 131.306 4.17199 129.615C2.56256 127.924 1.68351 125.668 1.72504 123.334V107.465C1.786 106.879 2.06172 106.337 2.49897 105.943C2.93621 105.549 3.50397 105.331 4.0926 105.331C4.68123 105.331 5.24899 105.549 5.68624 105.943C6.12348 106.337 6.3992 106.879 6.46016 107.465V123.385C6.43961 123.93 6.52664 124.473 6.71624 124.984C6.90585 125.495 7.19432 125.964 7.56517 126.363C7.93601 126.762 8.38194 127.085 8.87747 127.311C9.37299 127.538 9.90838 127.665 10.453 127.685H12.2703C13.3597 127.597 14.3781 127.109 15.1294 126.315C15.8807 125.521 16.3119 124.478 16.3399 123.385V119.571C16.2765 119.261 16.2759 118.94 16.338 118.629C16.4001 118.318 16.5238 118.023 16.7017 117.76C16.8797 117.498 17.1083 117.273 17.3741 117.1C17.64 116.928 17.9377 116.809 18.2498 116.753C18.5619 116.697 18.8822 116.703 19.1917 116.773C19.5012 116.842 19.7938 116.972 20.0522 117.156C20.3106 117.34 20.5297 117.574 20.6966 117.843C20.8634 118.113 20.9747 118.413 21.0238 118.727C21.0753 119.006 21.0753 119.292 21.0238 119.571V123.436C20.9168 125.78 19.9344 127.998 18.2709 129.652C16.6074 131.306 14.3839 132.275 12.0399 132.369Z" fill="#FEE856"/>
<path d="M72.675 132.369H70.9601C68.6269 132.295 66.4165 131.306 64.807 129.615C63.1976 127.924 62.3186 125.668 62.3601 123.334V119.571C62.3069 118.949 62.5002 118.331 62.8983 117.851C63.2965 117.37 63.8676 117.064 64.4886 117.001C65.1096 116.937 65.7309 117.12 66.2184 117.51C66.706 117.899 67.0209 118.465 67.0952 119.085C67.1206 119.246 67.1206 119.41 67.0952 119.571V123.436C67.0747 123.981 67.1617 124.524 67.3513 125.035C67.5409 125.546 67.8294 126.015 68.2002 126.414C68.5711 126.813 69.017 127.136 69.5125 127.363C70.008 127.59 70.5434 127.717 71.0881 127.736H72.8797C73.9758 127.66 75.0037 127.176 75.7615 126.381C76.5192 125.585 76.9521 124.535 76.975 123.436V104.035C76.9218 103.413 77.1151 102.795 77.5132 102.314C77.9113 101.833 78.4824 101.528 79.1035 101.464C79.7245 101.401 80.3458 101.583 80.8333 101.973C81.3209 102.363 81.6358 102.929 81.7101 103.549C81.7355 103.71 81.7355 103.874 81.7101 104.035V123.385C81.603 125.742 80.6152 127.973 78.9421 129.637C77.269 131.3 75.0325 132.275 72.675 132.369Z" fill="#FEE856"/>
<path d="M74.6202 82.5352C74.1606 82.1455 73.5678 81.9491 72.9664 81.9873C72.3651 82.0255 71.8019 82.2953 71.3952 82.7399C70.9994 83.1968 70.7989 83.791 70.8372 84.3944C70.8756 84.9977 71.1495 85.5618 71.6 85.9649C73.8669 87.8786 75.58 90.3644 76.5612 93.164C77.5425 95.9637 77.756 98.9751 77.1797 101.885H66.225C64.7149 101.885 64.5101 101.45 64.5101 101.45C63.8701 99.8037 63.8701 97.9773 64.5101 96.331H73.75C74.3745 96.331 74.9734 96.0829 75.4151 95.6413C75.8567 95.1997 76.1048 94.6008 76.1048 93.9763C76.1048 93.3517 75.8567 92.7528 75.4151 92.3112C74.9734 91.8696 74.3745 91.6215 73.75 91.6215H62.7952C62.3366 91.653 61.8949 91.8075 61.5165 92.0688C61.1382 92.33 60.8372 92.6883 60.6452 93.106C60.2101 94.181 57.8297 99.9911 60.4149 103.856C61.0549 104.724 61.9054 105.414 62.8861 105.862C63.8668 106.309 64.9454 106.5 66.0202 106.416H75.9C74.7185 110.075 73.2108 113.622 71.3952 117.012H11.6047C9.67622 113.695 8.16326 110.153 7.09998 106.467H16.9797C18.0545 106.551 19.1331 106.361 20.1138 105.913C21.0945 105.465 21.945 104.775 22.5851 103.907C25.1446 100.042 22.7899 94.2322 22.3547 93.1572C22.213 92.7056 21.9244 92.3143 21.5349 92.0454C21.1454 91.7764 20.6773 91.6452 20.2047 91.6727H9.24998C8.62546 91.6727 8.02652 91.9208 7.58491 92.3624C7.14331 92.804 6.89522 93.4029 6.89522 94.0274C6.89522 94.652 7.14331 95.2509 7.58491 95.6925C8.02652 96.1341 8.62546 96.3822 9.24998 96.3822H18.7202C19.3602 98.0285 19.3602 99.8549 18.7202 101.501C18.7202 101.501 18.4899 101.936 16.9797 101.936H6.02498C5.58986 96.331 6.22974 90.3161 11.6047 86.0161C11.8556 85.8345 12.0668 85.6036 12.2254 85.3376C12.384 85.0716 12.4867 84.776 12.5272 84.469C12.5677 84.1619 12.5452 83.8498 12.461 83.5518C12.3768 83.2538 12.2327 82.976 12.0375 82.7355C11.8424 82.4951 11.6002 82.2969 11.3259 82.1532C11.0515 82.0095 10.7507 81.9232 10.4419 81.8997C10.1331 81.8761 9.82275 81.9158 9.52979 82.0163C9.23684 82.1167 8.96744 82.2759 8.73808 82.484H8.6101C5.59164 85.1308 3.36842 88.5646 2.18875 92.402C1.00908 96.2393 0.919405 100.329 1.92974 104.214C2.1601 111.893 8.37974 120.135 8.6101 120.57C9.06172 121.048 9.67046 121.348 10.325 121.414H72.675C73.009 121.431 73.3417 121.362 73.6417 121.214C73.9417 121.066 74.1992 120.844 74.3899 120.57C74.6202 120.135 80.8399 111.97 81.0702 104.214C82.1095 100.358 82.0568 96.2887 80.9178 92.4606C79.7789 88.6325 77.5986 85.1962 74.6202 82.5352Z" fill="#FEE856"/>
<path d="M53.325 101.45H29.675C29.0895 101.389 28.5474 101.113 28.1533 100.676C27.7592 100.239 27.5411 99.671 27.5411 99.0824C27.5411 98.4938 27.7592 97.926 28.1533 97.4888C28.5474 97.0515 29.0895 96.7758 29.675 96.7148H53.325C53.9519 96.7216 54.5508 96.9753 54.9916 97.421C55.4325 97.8667 55.6798 98.4683 55.6798 99.0952C55.6327 99.7041 55.3695 100.276 54.9377 100.708C54.5059 101.14 53.9339 101.403 53.325 101.45Z" fill="#FEE856"/>
<path d="M50.7399 108.54H32.2601C31.6381 108.593 31.0201 108.4 30.5392 108.002C30.0583 107.603 29.7531 107.032 29.6893 106.411C29.6256 105.79 29.8083 105.169 30.1982 104.681C30.5881 104.194 31.154 103.879 31.7738 103.805C31.9349 103.779 32.099 103.779 32.2601 103.805H50.7399C51.0537 103.767 51.3718 103.792 51.6757 103.879C51.9796 103.965 52.2632 104.112 52.51 104.309C52.7568 104.506 52.9618 104.751 53.1131 105.028C53.2644 105.306 53.359 105.611 53.3912 105.925C53.4235 106.239 53.3929 106.557 53.3011 106.859C53.2094 107.162 53.0583 107.443 52.8568 107.686C52.6553 107.93 52.4073 108.13 52.1274 108.277C51.8474 108.424 51.5411 108.513 51.2262 108.54C51.0651 108.565 50.901 108.565 50.7399 108.54Z" fill="#FEE856"/>
<path d="M75.9 73.0649H70.7809L66.225 58.1429C66.0534 57.6515 65.7361 57.2241 65.3154 56.9178C64.8946 56.6114 64.3905 56.4405 63.8702 56.428H19.1297C18.6342 56.5201 18.1655 56.7219 17.7581 57.0186C17.3506 57.3153 17.0147 57.6995 16.775 58.1429L12.2702 73.1929H7.15118C5.43799 73.1585 3.78103 73.8046 2.54328 74.9896C1.30553 76.1746 0.587903 77.8018 0.54761 79.5149C0.520107 81.1897 1.15575 82.8076 2.31601 84.0158C3.47626 85.224 5.06705 85.9246 6.74166 85.9649H75.8488C77.4065 85.7675 78.8387 85.0086 79.8769 83.8306C80.915 82.6525 81.4878 81.1363 81.4878 79.5661C81.4878 77.9959 80.915 76.4796 79.8769 75.3016C78.8387 74.1236 77.4065 73.3647 75.8488 73.1673L75.9 73.0649ZM75.9 81.2298H7.09999C6.65391 81.23 6.2253 81.0563 5.90513 80.7457C5.58496 80.4351 5.39842 80.012 5.38511 79.5661C5.40965 79.1192 5.5982 78.6972 5.91464 78.3807C6.23108 78.0643 6.65315 77.8757 7.09999 77.8512H13.7548C14.2668 77.7985 14.7561 77.6124 15.1738 77.3115C15.5915 77.0105 15.9229 76.6053 16.1351 76.1363L20.6399 61.0863H61.9762L66.8649 76.0595C67.0131 76.5702 67.328 77.0165 67.7595 77.3273C68.1909 77.6381 68.7139 77.7955 69.2452 77.7744H75.9C76.3461 77.7742 76.7747 77.9478 77.0948 78.2585C77.415 78.5691 77.6015 78.9922 77.6149 79.4381C77.5898 79.8823 77.4004 80.3014 77.0834 80.6136C76.7664 80.9259 76.3446 81.109 75.9 81.1274V81.2298Z" fill="#FEE856"/>
<path d="M41.2953 30.7048C40.048 30.7597 38.8021 30.5682 37.6289 30.1411C36.4558 29.714 35.3783 29.0597 34.4583 28.2158C33.5382 27.3718 32.7937 26.3547 32.2672 25.2227C31.7406 24.0906 31.4425 22.8658 31.3899 21.6185V20.825C31.3411 18.1916 32.3271 15.6441 34.1362 13.7297C35.9452 11.8154 38.4329 10.687 41.0649 10.5869H41.2953C44.0106 10.5869 46.6147 11.6656 48.5347 13.5856C50.4547 15.5056 51.5334 18.1097 51.5334 20.825C51.5334 23.4453 50.4925 25.9582 48.6397 27.8111C46.7868 29.6639 44.2739 30.7048 41.6536 30.7048H41.2953ZM41.2953 15.3476C39.9074 15.3267 38.5667 15.8513 37.5615 16.8086C36.5564 17.7659 35.9671 19.0794 35.9203 20.4667V20.825C35.8994 22.2129 36.424 23.5536 37.3813 24.5587C38.3385 25.5639 39.652 26.1532 41.0393 26.2H41.1929C42.5435 26.3209 43.8869 25.901 44.9282 25.0324C45.9695 24.1639 46.6236 22.9176 46.7471 21.5673C46.7598 21.4054 46.7598 21.2428 46.7471 21.081V20.8762C46.7691 19.4416 46.2351 18.0542 45.257 17.0045C44.2789 15.9549 42.9326 15.3244 41.5 15.2452H41.2953V15.3476Z" fill="#FEE856"/>
</svg>
